<svg width="2006" height="463" viewBox="0 0 2006 463" fill="none" xmlns="http://www.w3.org/2000/svg">
<g clip-path="url(#clip0_17_1166)">
<mask id="mask0_17_1166" style="mask-type:luminance" maskUnits="userSpaceOnUse" x="0" y="0" width="1985" height="463">
<path d="M1984.92 0H0V462.923H1984.92V0Z" fill="white"/>
</mask>
<g mask="url(#mask0_17_1166)">
<path d="M757.542 290.769L708.829 115.702L673.458 115.864L624.752 290.769L576.041 115.702H540.83L608.033 347.202H641.47L691.143 174.06L740.815 347.202H774.259L841.618 115.702H806.247L757.542 290.769Z" fill="#5B52FF"/>
<path d="M1205.62 185.408C1203.76 183.756 1201.8 182.191 1199.75 180.731C1188.55 172.746 1174.75 168.754 1158.35 168.754C1141.96 168.754 1128 172.746 1116.16 180.731C1104.31 188.715 1095.18 199.595 1088.75 213.361C1082.32 227.139 1079.1 242.758 1079.1 260.228C1079.1 277.698 1082.28 293.213 1088.66 307.093C1095.04 320.973 1104.1 331.935 1115.84 339.968C1127.57 348.008 1141.53 352.026 1157.71 352.026C1173.9 352.026 1188.26 347.977 1199.52 339.887C1203.12 337.299 1206.45 334.411 1209.49 331.225V347.202H1239.39V115.702H1205.63L1205.62 185.408ZM1204.66 292.062C1201.44 301.28 1196.35 308.513 1189.38 313.765C1182.41 319.013 1173.41 321.644 1162.37 321.644C1151.33 321.644 1142.78 318.909 1135.76 313.441C1128.74 307.973 1123.49 300.61 1120.01 291.335C1116.53 282.068 1114.79 271.697 1114.79 260.228C1114.79 248.759 1116.53 238.581 1120.01 229.363C1123.5 220.145 1128.83 212.805 1136.01 207.337C1143.18 201.871 1152.34 199.136 1163.5 199.136C1174 199.136 1182.65 201.709 1189.46 206.855C1196.27 211.999 1201.3 219.176 1204.57 228.396C1207.84 237.614 1209.48 248.227 1209.48 260.228C1209.48 272.229 1207.87 282.844 1204.66 292.062Z" fill="#5B52FF"/>
<path d="M1396.32 180.471C1383.56 172.648 1368.51 168.736 1351.15 168.736C1333.79 168.736 1319.22 172.568 1306.46 180.229C1293.7 187.892 1283.79 198.609 1276.72 212.385C1269.65 226.161 1266.11 242.105 1266.11 260.211C1266.11 278.317 1269.57 294.108 1276.48 307.875C1283.39 321.65 1293.22 332.448 1305.98 340.264C1318.73 348.087 1333.79 351.999 1351.15 351.999C1368.51 351.999 1383.41 348.11 1396.16 340.345C1408.91 332.579 1418.8 321.803 1425.82 308.029C1432.84 294.261 1436.36 278.317 1436.36 260.201C1436.36 242.087 1432.87 226.499 1425.91 212.781C1418.94 199.063 1409.08 188.295 1396.32 180.471ZM1388.37 303.537C1380.17 314.739 1367.76 320.335 1351.15 320.335C1334.54 320.335 1322.7 314.867 1314.34 303.94C1305.98 293.011 1301.79 278.431 1301.79 260.211C1301.79 248.42 1303.56 238.056 1307.1 229.104C1310.64 220.158 1316.04 213.135 1323.34 208.045C1330.63 202.957 1339.89 200.407 1351.14 200.407C1367.54 200.407 1379.89 205.852 1388.2 216.725C1396.51 227.604 1400.66 242.097 1400.66 260.211C1400.66 278.325 1396.57 292.334 1388.37 303.537Z" fill="#5B52FF"/>
<path d="M1643.44 169.235C1631.87 169.235 1621.42 171.785 1612.1 176.874C1603.18 181.736 1596.07 188.487 1590.73 197.116C1586.21 188.607 1579.9 181.913 1571.75 177.034C1563.06 171.84 1552.55 169.235 1540.24 169.235C1527.91 169.235 1517.89 171.808 1508.56 176.954C1501.35 180.93 1495.31 186.035 1490.4 192.261V173.582H1460.5V347.207H1494.26V238.693C1494.26 226.9 1497.5 217.367 1503.98 210.078C1510.47 202.795 1519.02 199.147 1529.62 199.147C1540.23 199.147 1548.9 202.737 1555.27 209.916C1561.64 217.101 1564.82 227.013 1564.82 239.659L1564.67 347.207H1598.26L1598.41 238.683C1598.41 229.901 1600.05 222.585 1603.33 216.746C1606.59 210.907 1610.88 206.512 1616.19 203.559C1621.5 200.617 1627.36 199.14 1633.8 199.14C1644.3 199.14 1652.76 202.648 1659.19 209.673C1665.63 216.698 1668.84 226.473 1668.84 239.015L1668.68 347.207H1702.28L1702.43 230.973C1702.43 212.327 1697.29 197.375 1687 186.123C1676.71 174.872 1662.19 169.235 1643.44 169.235Z" fill="#5B52FF"/>
<path d="M1801.84 115.702L1726.62 347.202H1761.49L1778.44 294.957H1873.44L1890.59 347.202H1925.47L1850.23 115.702H1801.84ZM1788.65 263.447L1825.67 149.269L1863.12 263.447H1788.65Z" fill="#5B52FF"/>
<path d="M1984.9 115.702H1951.3V347.202H1984.9V115.702Z" fill="#5B52FF"/>
<path d="M855.021 173.568V347.194H888.62V235.178V173.568H884.417H855.021Z" fill="#5B52FF"/>
<path d="M890.778 131.858C891.82 121.344 884.139 111.977 873.625 110.937C863.111 109.897 853.745 117.577 852.705 128.091C851.663 138.605 859.346 147.971 869.858 149.011C880.372 150.052 889.739 142.372 890.778 131.858Z" fill="#5B52FF"/>
<path d="M1039.61 257.879C1031.04 253.323 1019.47 249.178 1004.89 245.419C991.27 241.993 980.98 239.04 974.021 236.581C967.052 234.112 962.366 231.546 959.955 228.861C957.544 226.184 956.333 222.911 956.333 219.055C956.333 212.41 959.496 207.183 965.817 203.385C972.142 199.578 980.391 197.892 990.578 198.32C1001.19 198.748 1009.81 201.377 1016.46 206.199C1021.34 209.748 1024.74 214.248 1026.68 219.699H1062.6C1061.32 209.409 1057.45 200.432 1051.02 192.771C1044.6 185.108 1036.18 179.189 1025.78 175.004C1015.39 170.826 1003.54 168.736 990.256 168.736C976.972 168.736 964.778 170.883 954.649 175.165C944.519 179.456 936.672 185.513 931.098 193.336C925.525 201.157 922.734 210.321 922.734 220.83C922.734 229.297 924.582 236.5 928.284 242.452C931.977 248.397 938.194 253.597 946.93 258.049C955.664 262.5 967.48 266.647 982.374 270.509C995.982 274.155 1006.11 277.212 1012.76 279.671C1019.4 282.14 1023.77 284.736 1025.86 287.471C1027.95 290.204 1029 293.771 1029 298.157C1029 305.658 1026.02 311.553 1020.08 315.845C1014.13 320.134 1005.9 322.272 995.4 322.272C983.827 322.272 974.148 319.673 966.382 314.471C960.206 310.344 955.816 305.005 953.197 298.479H917.106C920.105 315.416 928.251 328.546 941.543 337.87C954.834 347.192 972.028 351.854 993.151 351.854C1014.27 351.854 1032.34 346.976 1044.84 337.224C1057.32 327.474 1063.57 314.022 1063.57 296.874C1063.57 287.979 1061.72 280.398 1058.02 274.124C1054.32 267.855 1048.18 262.437 1039.61 257.879Z" fill="#5B52FF"/>
<path d="M414.567 361.392C403.518 368.853 389.284 365.183 382.251 355.392C367.943 335.463 341.394 311.597 306.181 310.195C299.1 309.913 292.432 306.389 288.173 300.782C240.953 238.641 181.805 241.781 136.964 300.782C132.705 306.389 126.036 309.913 118.955 310.195C83.7432 311.597 57.2339 335.407 42.8863 355.392C35.8536 365.183 21.6189 368.861 10.57 361.392C0.0936312 354.31 -2.43875 341.448 2.27922 331.48C4.43257 326.937 24.2803 286.758 2.4002 241.9C-0.761252 235.423 -0.793512 227.723 2.30343 221.214C4.43257 216.744 24.3208 176.71 2.36795 131.74C-4.21304 118.255 3.42446 99.6972 20.9174 97.7535C41.3136 95.4952 52.177 116.569 44.967 131.611C38.5715 144.958 25.3531 180.961 44.838 221.019C47.7171 226.94 47.9831 233.884 45.6444 239.989C41.2086 251.579 25.4982 302.445 41.0152 311.358C56.1773 320.067 90.6226 282.993 99.6151 271.823C103.696 266.74 109.801 263.492 116.326 262.975C131.052 261.812 168.288 255.159 192.927 218.311C202.274 204.332 222.855 204.332 232.202 218.311C256.841 255.159 294.076 261.812 308.804 262.975C315.328 263.492 321.425 266.74 325.514 271.823C332.797 280.879 368.992 320.044 384.114 311.358C399.067 302.767 385.187 254.893 379.485 239.989C377.145 233.875 377.419 226.94 380.291 221.019C399.777 180.961 386.558 144.958 380.162 131.611C372.952 116.561 383.823 95.4952 404.213 97.7535C421.704 99.6891 429.342 118.247 422.761 131.74C400.816 176.702 420.704 216.737 422.826 221.214C425.914 227.714 425.882 235.423 422.73 241.9C400.841 286.758 420.697 326.937 422.849 331.48C427.575 341.448 425.052 354.31 414.567 361.392ZM367.137 361.522C367.709 362.272 367.501 363.352 366.685 363.829L321.458 390.209C319.328 391.452 317.924 393.733 318.055 396.193C318.119 397.387 317.99 398.637 317.61 399.919C316.489 403.758 313.223 406.79 309.296 407.581C306.432 408.153 303.747 407.606 301.544 406.306C299.278 404.977 296.537 404.741 294.261 406.065L227.34 445.099C224.992 446.47 223.557 448.987 223.58 451.705V451.898C223.58 458.56 217.663 463.851 210.798 462.786C206.645 462.14 203.111 458.996 201.968 454.947C201.613 453.697 201.491 452.48 201.555 451.317C201.676 449.124 200.048 446.431 198.16 445.326L130.883 406.08C128.609 404.751 125.858 404.984 123.584 406.323C121.374 407.621 118.665 408.179 115.793 407.581C111.833 406.767 108.704 403.879 107.543 400C107.156 398.693 107.019 397.427 107.083 396.21C107.22 393.751 105.817 391.452 103.688 390.209L58.4516 363.821C57.6451 363.344 57.4273 362.272 58 361.522C58 361.514 58.016 361.506 58.016 361.497C58.4919 360.876 59.3629 360.706 60.0404 361.101L105.317 387.515C107.583 388.838 110.317 388.612 112.583 387.297C112.624 387.274 112.672 387.249 112.713 387.216C114.979 385.943 116.511 383.684 116.511 381.088V327.721C116.511 326.851 117.213 326.149 118.084 326.149C118.955 326.149 119.656 326.851 119.656 327.721V381.088C119.656 383.684 121.189 385.943 123.455 387.216C123.503 387.241 123.544 387.264 123.584 387.297C125.85 388.612 128.584 388.838 130.85 387.515L197.772 348.471C200.12 347.102 201.547 344.585 201.524 341.867V341.672V341.479C201.547 338.763 200.112 336.246 197.772 334.875L152.973 308.743C152.15 308.268 151.948 307.171 152.537 306.428C152.537 306.42 152.553 306.413 152.553 306.405C153.037 305.799 153.892 305.639 154.561 306.027L199.765 332.398C202.031 333.721 204.766 333.496 207.031 332.182C207.071 332.157 207.121 332.132 207.162 332.099C209.428 330.826 210.96 328.567 210.96 325.971V272.733C210.96 271.863 211.66 271.161 212.532 271.161C213.404 271.161 214.106 271.863 214.106 272.733V325.979C214.106 328.575 215.637 330.834 217.904 332.109C217.952 332.132 217.992 332.157 218.033 332.19C220.299 333.503 223.032 333.729 225.299 332.406L270.503 306.035C271.173 305.647 272.027 305.809 272.511 306.413C272.511 306.42 272.527 306.428 272.527 306.436C273.115 307.178 272.907 308.276 272.093 308.75L227.291 334.882C224.944 336.246 223.517 338.771 223.542 341.487V341.682V341.874C223.517 344.592 224.954 347.109 227.299 348.481L294.222 387.524C296.489 388.846 299.222 388.62 301.498 387.297L301.625 387.224C303.973 385.91 305.425 383.426 305.425 380.733V327.73C305.425 326.858 306.127 326.156 306.997 326.156C307.869 326.156 308.569 326.858 308.569 327.73V381.096C308.569 383.539 309.885 385.804 312.006 387.015L312.94 387.548C315.062 388.757 317.667 388.749 319.772 387.524L365.057 361.109C365.727 360.714 366.589 360.883 367.063 361.506L367.081 361.529L367.137 361.522ZM211 357.805C211 355.093 209.548 352.593 207.201 351.254L207.071 351.183C204.685 349.819 201.742 349.827 199.362 351.214L132.496 390.217C130.246 391.531 129.068 394 129.117 396.605C129.117 396.669 129.117 396.733 129.117 396.798C129.117 396.862 129.117 396.928 129.117 396.991C129.068 399.597 130.246 402.064 132.496 403.38L199.362 442.381C201.742 443.77 204.678 443.785 207.071 442.414L207.563 442.132C209.685 440.915 211 438.654 211 436.212V357.805ZM296.028 396.791V396.598C296.053 393.878 294.625 391.361 292.278 389.991L225.791 351.206C223.411 349.819 220.477 349.804 218.081 351.173L217.952 351.247C215.604 352.593 214.152 355.093 214.152 357.795V436.187C214.152 438.785 215.686 441.042 217.952 442.317C218 442.342 218.041 442.365 218.081 442.389C220.348 443.712 223.088 443.939 225.355 442.616L292.278 403.572C294.625 402.209 296.061 399.684 296.035 396.968L296.028 396.791ZM321.82 183.139L366.751 209.349C367.436 209.745 367.709 210.591 367.395 211.319L367.38 211.351C367.009 212.206 365.975 212.543 365.169 212.077L319.82 185.623C317.554 184.3 314.82 184.526 312.546 185.848C312.506 185.873 312.456 185.896 312.415 185.921C310.151 187.195 308.619 189.453 308.619 192.05V245.214C308.619 246.086 307.917 246.788 307.045 246.788C306.173 246.788 305.471 246.086 305.471 245.214V192.47C305.471 189.76 304.021 187.26 301.675 185.921L301.103 185.598C298.981 184.388 296.375 184.396 294.271 185.631L248.856 212.123C248.171 212.528 247.292 212.341 246.817 211.706L246.8 211.681C246.252 210.931 246.47 209.874 247.267 209.407L292.648 182.936C294.899 181.622 296.076 179.162 296.028 176.557C296.028 176.493 296.028 176.428 296.028 176.364C296.028 176.3 296.028 176.235 296.028 176.17C296.076 173.565 294.899 171.098 292.648 169.783L225.783 130.78C223.403 129.393 220.469 129.377 218.071 130.748L217.952 130.812C215.597 132.151 214.137 134.659 214.137 137.369V190.535C214.137 191.405 213.435 192.107 212.565 192.107C211.693 192.107 210.991 191.405 210.991 190.535V137.087C210.991 134.482 209.606 132.006 207.266 130.853C207.193 130.82 207.129 130.78 207.064 130.74C204.799 129.417 202.064 129.191 199.798 130.514L132.875 169.556C130.528 170.928 129.1 173.443 129.125 176.162V176.355V176.55C129.1 179.267 130.536 181.784 132.875 183.154L177.877 209.407C178.676 209.874 178.894 210.931 178.344 211.681L178.329 211.706C177.861 212.341 176.982 212.528 176.297 212.123L131.318 185.888C128.939 184.501 126.003 184.486 123.608 185.856L123.108 186.138C120.987 187.356 119.673 189.615 119.673 192.058V245.222C119.673 246.094 118.971 246.796 118.1 246.796C117.229 246.796 116.527 246.094 116.527 245.222V192.195C116.527 189.59 115.14 187.115 112.801 185.961C112.729 185.928 112.664 185.888 112.599 185.848C110.333 184.526 107.599 184.3 105.333 185.623L59.9838 212.077C59.1774 212.543 58.1451 212.206 57.774 211.351L57.7579 211.319C57.4434 210.591 57.7176 209.745 58.4031 209.349L103.333 183.139C105.68 181.767 107.107 179.252 107.083 176.533V176.34V176.145C107.107 173.428 105.68 170.911 103.333 169.541L58.4838 143.378C57.8064 142.982 57.524 142.136 57.8386 141.418L57.8548 141.386C58.2257 140.531 59.258 140.184 60.0726 140.66L105.341 167.064C107.607 168.387 110.341 168.161 112.608 166.847C112.656 166.822 112.696 166.799 112.737 166.766C115.003 165.492 116.535 163.234 116.535 160.637V82.2364C116.535 79.5344 115.084 77.0345 112.737 75.6956L112.164 75.3729C110.043 74.1632 107.438 74.1715 105.333 75.4052L59.7016 102.02C58.9355 102.464 57.9595 102.189 57.5402 101.407L57.524 101.383C57.129 100.641 57.387 99.7295 58.1129 99.302L103.704 72.7115C105.825 71.4695 107.237 69.1871 107.099 66.7354C107.035 65.5337 107.164 64.2834 107.543 63.0011C108.664 59.1621 111.93 56.1298 115.85 55.3394C118.713 54.7667 121.398 55.3151 123.608 56.6136C125.875 57.9524 128.617 58.1782 130.891 56.8556L197.813 17.8207C200.16 16.4497 201.588 13.9334 201.564 11.2154V11.0219C201.564 3.94883 208.219 -1.55959 215.605 0.400212C218.735 1.23091 221.372 3.54559 222.654 6.5216C223.411 8.28783 223.686 10.0218 223.588 11.659C223.443 14.1027 224.88 16.369 226.992 17.603L294.319 56.8797C296.568 58.1944 299.295 57.9607 301.537 56.6298C303.585 55.4121 306.062 54.8475 308.714 55.2346C312.546 55.799 316.466 59.1865 317.594 62.8883C317.997 64.219 318.142 65.5175 318.071 66.7595C317.924 69.2033 319.359 71.4776 321.473 72.7115L367.056 99.302C367.781 99.7215 368.041 100.641 367.646 101.383C367.646 101.391 367.636 101.399 367.628 101.407C367.21 102.189 366.234 102.464 365.466 102.02L320.271 75.6551C317.893 74.2681 314.957 74.2519 312.562 75.6229L312.07 75.9053C309.941 77.1232 308.635 79.3813 308.635 81.833V160.653C308.635 163.25 310.166 165.509 312.433 166.782C312.481 166.807 312.521 166.831 312.562 166.864C314.828 168.178 317.561 168.404 319.83 167.081L365.096 140.676C365.904 140.208 366.944 140.547 367.314 141.41L367.331 141.442C367.646 142.168 367.364 143.007 366.685 143.402L321.836 169.564C319.49 170.928 318.055 173.453 318.086 176.17V176.364V176.557C318.063 179.275 319.498 181.791 321.836 183.163L321.82 183.139ZM201.555 121.231C201.555 121.166 201.555 121.102 201.555 121.037C201.605 118.432 200.426 115.964 198.177 114.65L131.31 75.6472C128.931 74.26 125.996 74.244 123.6 75.615L123.463 75.6875C121.116 77.0345 119.664 79.5344 119.664 82.2364V160.637C119.664 163.08 120.979 165.347 123.1 166.557L123.6 166.839C125.987 168.209 128.931 168.194 131.31 166.807L198.177 127.796C200.426 126.481 201.605 124.021 201.555 121.416C201.555 121.352 201.555 121.295 201.555 121.231ZM211 27.136C211 24.4259 209.548 21.926 207.201 20.5872L207.071 20.5144C204.685 19.1434 201.742 19.1596 199.369 20.5466L132.883 59.3317C130.536 60.7027 129.108 63.2189 129.133 65.9368V66.1305V66.3241C129.108 69.0419 130.544 71.5583 132.883 72.9293L199.805 111.972C202.072 113.295 204.807 113.069 207.071 111.755C207.114 111.73 207.162 111.706 207.201 111.674C209.469 110.4 211 108.141 211 105.545V27.136ZM225.347 111.956L292.27 72.9131C294.616 71.5421 296.043 69.0259 296.02 66.3079V66.1143V65.9206C296.043 63.2029 294.608 60.6865 292.27 59.3155L225.783 20.5306C223.403 19.1434 220.469 19.1272 218.071 20.4984L217.582 20.7806C215.46 21.9985 214.144 24.2568 214.144 26.7002V105.52C214.144 108.117 215.678 110.375 217.944 111.65C217.992 111.674 218.033 111.698 218.071 111.73C220.34 113.045 223.083 113.279 225.347 111.956ZM305.471 81.8251C305.471 79.3732 304.158 77.1151 302.038 75.8972L301.544 75.615C299.158 74.244 296.213 74.26 293.835 75.6472L227.347 114.432C225 115.795 223.573 118.319 223.598 121.037V121.231V121.425C223.573 124.142 225.008 126.659 227.347 128.03L294.271 167.072C296.537 168.396 299.27 168.169 301.537 166.854C301.577 166.831 301.625 166.807 301.666 166.774C303.932 165.5 305.464 163.242 305.464 160.645L305.471 81.8251Z" fill="#5B52FF"/>
</g>
</g>
<defs>
<clipPath id="clip0_17_1166">
<rect width="2006" height="462.923" fill="white"/>
</clipPath>
</defs>
</svg>
