<svg width="104" height="24" viewBox="0 0 104 24" fill="none" xmlns="http://www.w3.org/2000/svg">
<mask id="mask0_595_2781" style="mask-type:luminance" maskUnits="userSpaceOnUse" x="0" y="0" width="103" height="24">
<path d="M102.907 0H0V24H102.907V0Z" fill="white"/>
</mask>
<g mask="url(#mask0_595_2781)">
<path d="M39.2744 15.0748L36.7489 5.99854L34.9151 6.0069L32.39 15.0748L29.8646 5.99854H28.0391L31.5232 18.0005H33.2567L35.832 9.02409L38.4072 18.0005H40.1411L43.6333 5.99854H41.7995L39.2744 15.0748Z" fill="white"/>
<path d="M62.5048 9.61242C62.4082 9.52674 62.3066 9.44562 62.2004 9.36994C61.6196 8.95594 60.9043 8.74898 60.0542 8.74898C59.2042 8.74898 58.4803 8.95594 57.8666 9.36994C57.2523 9.78386 56.7791 10.3479 56.4454 11.0616C56.1121 11.7759 55.9453 12.5857 55.9453 13.4914C55.9453 14.3971 56.1104 15.2015 56.4412 15.9211C56.7715 16.6407 57.2415 17.209 57.8499 17.6255C58.4582 18.0423 59.182 18.2506 60.0211 18.2506C60.8603 18.2506 61.6046 18.0407 62.1883 17.6213C62.3752 17.4871 62.5475 17.3374 62.7051 17.1722V18.0005H64.2555V5.99854H62.5052L62.5048 9.61242ZM62.4547 15.1418C62.2878 15.6197 62.024 15.9947 61.6628 16.267C61.3015 16.5391 60.8348 16.6755 60.2624 16.6755C59.69 16.6755 59.2468 16.5337 58.8831 16.2502C58.5188 15.9667 58.2467 15.585 58.0664 15.1041C57.8858 14.6237 57.7955 14.086 57.7955 13.4914C57.7955 12.8968 57.8858 12.3691 58.0664 11.8912C58.2471 11.4133 58.5235 11.0328 58.8956 10.7493C59.2677 10.4659 59.7427 10.3241 60.321 10.3241C60.8654 10.3241 61.314 10.4575 61.6669 10.7243C62.0198 10.991 62.2807 11.3631 62.4504 11.8411C62.6198 12.319 62.7047 12.8692 62.7047 13.4914C62.7047 14.1136 62.6215 14.6639 62.4547 15.1418Z" fill="white"/>
<path d="M72.3916 9.35645C71.7301 8.95085 70.9499 8.74805 70.0497 8.74805C69.1495 8.74805 68.394 8.94669 67.7329 9.34389C67.0714 9.74117 66.5576 10.2968 66.1909 11.011C65.8241 11.7252 65.6406 12.5518 65.6406 13.4905C65.6406 14.4292 65.82 15.2479 66.1783 15.9616C66.5366 16.6758 67.0463 17.2356 67.7078 17.6408C68.3689 18.0464 69.1495 18.2492 70.0497 18.2492C70.9499 18.2492 71.7222 18.0476 72.3833 17.645C73.0443 17.2424 73.5569 16.6837 73.9211 15.9696C74.2849 15.2558 74.4672 14.4292 74.4672 13.49C74.4672 12.5509 74.2865 11.7427 73.9253 11.0315C73.5641 10.3203 73.0531 9.76205 72.3916 9.35645ZM71.9793 15.7367C71.5541 16.3175 70.911 16.6076 70.0497 16.6076C69.1884 16.6076 68.5745 16.3241 68.141 15.7576C67.7078 15.191 67.4908 14.4351 67.4908 13.4905C67.4908 12.8792 67.5824 12.3419 67.7659 11.8778C67.9495 11.414 68.2296 11.0499 68.6076 10.786C68.9856 10.5222 69.466 10.39 70.0493 10.39C70.8993 10.39 71.5399 10.6723 71.9706 11.236C72.4013 11.8 72.6165 12.5514 72.6165 13.4905C72.6165 14.4296 72.4045 15.1559 71.9793 15.7367Z" fill="white"/>
<path d="M85.2033 8.77393C84.6033 8.77393 84.0617 8.90609 83.5785 9.16993C83.1161 9.42201 82.7473 9.77201 82.4705 10.2194C82.2361 9.77825 81.9089 9.43121 81.4865 9.17825C81.0361 8.90897 80.4913 8.77393 79.8528 8.77393C79.2139 8.77393 78.6941 8.90729 78.2108 9.17409C77.837 9.38025 77.5234 9.64489 77.2692 9.96769V8.99929H75.7188V18.0008H77.4691V12.3749C77.4691 11.7635 77.6371 11.2693 77.9733 10.8914C78.3095 10.5138 78.7527 10.3247 79.3025 10.3247C79.8524 10.3247 80.3017 10.5108 80.6321 10.883C80.9625 11.2555 81.1273 11.7694 81.1273 12.425L81.1193 18.0008H82.8609L82.8689 12.3744H82.8697C82.8697 11.9191 82.9537 11.5398 83.1241 11.2371C83.2929 10.9344 83.5153 10.7065 83.7905 10.5534C84.0657 10.4009 84.3697 10.3243 84.7033 10.3243C85.2481 10.3243 85.6865 10.5062 86.0201 10.8704C86.3537 11.2346 86.5201 11.7414 86.5201 12.3916L86.5121 18.0008H88.2537L88.2617 11.9747C88.2617 11.008 87.9953 10.2328 87.4617 9.64945C86.9281 9.06617 86.1753 8.77393 85.2033 8.77393Z" fill="white"/>
<path d="M93.4156 5.99854L89.5156 18.0005H91.3236L92.202 15.2919H97.1276L98.0164 18.0005H99.8252L95.9244 5.99854H93.4156ZM92.7316 13.6583L94.6508 7.73878L96.5924 13.6583H92.7316Z" fill="white"/>
<path d="M102.906 5.99854H101.164V18.0005H102.906V5.99854Z" fill="white"/>
<path d="M44.3281 8.99854V18.0001H46.07V12.1927V8.99854H45.8521H44.3281Z" fill="white"/>
<path d="M46.1819 6.8361C46.2359 6.291 45.8377 5.8054 45.2926 5.75147C44.7475 5.69755 44.2619 6.09571 44.208 6.64081C44.154 7.18591 44.5523 7.67151 45.0973 7.72543C45.6424 7.77936 46.128 7.38119 46.1819 6.8361Z" fill="white"/>
<path d="M53.8982 13.3696C53.4537 13.1334 52.8537 12.9185 52.0978 12.7236C51.3919 12.546 50.8584 12.3929 50.4976 12.2654C50.1363 12.1374 49.8934 12.0044 49.7684 11.8652C49.6434 11.7264 49.5806 11.5567 49.5806 11.3568C49.5806 11.0123 49.7446 10.7413 50.0723 10.5444C50.4002 10.347 50.8279 10.2596 51.356 10.2818C51.9062 10.304 52.3532 10.4403 52.6978 10.6903C52.9511 10.8743 53.1271 11.1076 53.2275 11.3902H55.0898C55.0234 10.8567 54.823 10.3913 54.4898 9.99413C54.1566 9.59685 53.7201 9.28997 53.1811 9.07301C52.6422 8.85637 52.0279 8.74805 51.3393 8.74805C50.6506 8.74805 50.0184 8.85933 49.4933 9.08133C48.9681 9.30381 48.5613 9.61781 48.2723 10.0234C47.9834 10.4289 47.8387 10.904 47.8387 11.4488C47.8387 11.8878 47.9345 12.2612 48.1264 12.5698C48.3179 12.878 48.6402 13.1476 49.0931 13.3784C49.5459 13.6092 50.1585 13.8242 50.9307 14.0244C51.6362 14.2134 52.1613 14.3719 52.5058 14.4994C52.8503 14.6274 53.0766 14.762 53.1853 14.9038C53.2936 15.0455 53.3479 15.2304 53.3479 15.4578C53.3479 15.8467 53.1936 16.1523 52.8854 16.3748C52.5769 16.5972 52.1504 16.708 51.606 16.708C51.006 16.708 50.5042 16.5733 50.1016 16.3036C49.7814 16.0896 49.5538 15.8128 49.418 15.4745H47.5469C47.7024 16.3526 48.1247 17.0333 48.8138 17.5167C49.5029 18 50.3943 18.2417 51.4894 18.2417C52.5844 18.2417 53.5214 17.9888 54.1691 17.4832C54.8164 16.9777 55.14 16.2803 55.14 15.3913C55.14 14.9301 55.0442 14.5371 54.8523 14.2118C54.6608 13.8868 54.3426 13.6059 53.8982 13.3696Z" fill="white"/>
<path d="M21.493 18.7362C20.9202 19.123 20.1822 18.9327 19.8176 18.4251C19.0758 17.3919 17.6994 16.1546 15.8738 16.0819C15.5067 16.0673 15.161 15.8846 14.9402 15.5939C12.4921 12.3722 9.4256 12.535 7.10082 15.5939C6.88004 15.8846 6.53426 16.0673 6.16714 16.0819C4.34162 16.1546 2.96726 17.389 2.22342 18.4251C1.85881 18.9327 1.12082 19.1234 0.547995 18.7362C0.0048542 18.369 -0.126436 17.7022 0.118165 17.1854C0.229804 16.9499 1.2588 14.8668 0.124437 12.5412C-0.0394668 12.2054 -0.0411393 11.8062 0.11942 11.4687C0.229804 11.237 1.2609 9.16144 0.122765 6.82998C-0.218423 6.13086 0.177539 5.16875 1.08445 5.06798C2.14188 4.9509 2.70509 6.04347 2.33129 6.82329C1.99972 7.51529 1.31442 9.38184 2.3246 11.4586C2.47387 11.7656 2.48766 12.1256 2.36641 12.4421C2.13644 13.043 1.32194 15.6801 2.12641 16.1422C2.91248 16.5937 4.69828 14.6716 5.16449 14.0925C5.37606 13.829 5.69258 13.6606 6.03084 13.6338C6.79433 13.5735 8.7248 13.2286 10.0022 11.3182C10.4868 10.5935 11.5538 10.5935 12.0384 11.3182C13.3158 13.2286 15.2462 13.5735 16.0098 13.6338C16.348 13.6606 16.6641 13.829 16.8761 14.0925C17.2537 14.562 19.1302 16.5925 19.9142 16.1422C20.6894 15.6968 19.9698 13.2148 19.6742 12.4421C19.5529 12.1251 19.5671 11.7656 19.716 11.4586C20.7262 9.38184 20.0409 7.51529 19.7093 6.82329C19.3355 6.04306 19.8991 4.9509 20.9562 5.06798C21.863 5.16833 22.259 6.13045 21.9178 6.82998C20.7801 9.16104 21.8112 11.2366 21.9212 11.4687C22.0813 11.8057 22.0796 12.2054 21.9162 12.5412C20.7814 14.8668 21.8108 16.9499 21.9224 17.1854C22.1674 17.7022 22.0366 18.369 21.493 18.7362ZM19.034 18.7429C19.0637 18.7818 19.0529 18.8378 19.0106 18.8625L16.6658 20.2302C16.5554 20.2946 16.4826 20.4129 16.4894 20.5404C16.4927 20.6023 16.486 20.6671 16.4663 20.7336C16.4082 20.9326 16.2389 21.0898 16.0353 21.1308C15.8868 21.1605 15.7476 21.1321 15.6334 21.0647C15.5159 20.9958 15.3738 20.9836 15.2558 21.0522L11.7863 23.0759C11.6646 23.147 11.5902 23.2775 11.5914 23.4184V23.4284C11.5914 23.7738 11.2846 24.0481 10.9287 23.9929C10.7134 23.9594 10.5302 23.7964 10.4709 23.5865C10.4525 23.5217 10.4462 23.4586 10.4495 23.3983C10.4558 23.2846 10.3714 23.145 10.2735 23.0877L6.78555 21.053C6.66764 20.9841 6.52506 20.9962 6.40714 21.0656C6.29258 21.1329 6.1521 21.1618 6.00324 21.1308C5.79794 21.0886 5.63571 20.9389 5.5755 20.7378C5.55543 20.67 5.54832 20.6044 5.55166 20.5413C5.55878 20.4138 5.48602 20.2946 5.37564 20.2302L3.03039 18.8621C2.98858 18.8374 2.97729 18.7818 3.00698 18.7429C3.00698 18.7425 3.00781 18.7421 3.00781 18.7416C3.03248 18.7094 3.07764 18.7006 3.11276 18.7211L5.4601 20.0905C5.57759 20.1591 5.71934 20.1474 5.83682 20.0792C5.83892 20.078 5.84142 20.0767 5.84352 20.075C5.96101 20.009 6.04046 19.8919 6.04046 19.7573V16.9905C6.04046 16.9454 6.07683 16.909 6.12198 16.909C6.16714 16.909 6.20352 16.9454 6.20352 16.9905V19.7573C6.20352 19.8919 6.28297 20.009 6.40046 20.075C6.40297 20.0763 6.40506 20.0775 6.40714 20.0792C6.52464 20.1474 6.66638 20.1591 6.78387 20.0905L10.2534 18.0663C10.3751 17.9953 10.4491 17.8648 10.4479 17.7239V17.7138V17.7038C10.4491 17.563 10.3747 17.4325 10.2534 17.3614L7.93078 16.0066C7.88814 15.982 7.87768 15.9251 7.90821 15.8866C7.90821 15.8862 7.90904 15.8858 7.90904 15.8854C7.93413 15.854 7.97845 15.8457 8.01312 15.8658L10.3567 17.233C10.4742 17.3016 10.616 17.2899 10.7334 17.2218C10.7355 17.2205 10.7381 17.2192 10.7402 17.2175C10.8577 17.1515 10.9371 17.0344 10.9371 16.8998V14.1397C10.9371 14.0946 10.9734 14.0582 11.0186 14.0582C11.0638 14.0582 11.1002 14.0946 11.1002 14.1397V16.9002C11.1002 17.0348 11.1796 17.1519 11.2971 17.218C11.2996 17.2192 11.3017 17.2205 11.3038 17.2222C11.4213 17.2903 11.563 17.302 11.6805 17.2334L14.0241 15.8662C14.0588 15.8461 14.1031 15.8545 14.1282 15.8858C14.1282 15.8862 14.129 15.8866 14.129 15.887C14.1595 15.9255 14.1487 15.9824 14.1065 16.007L11.7838 17.3618C11.6621 17.4325 11.5881 17.5634 11.5894 17.7042V17.7143V17.7243C11.5881 17.8652 11.6626 17.9957 11.7842 18.0668L15.2538 20.091C15.3713 20.1595 15.513 20.1478 15.631 20.0792L15.6376 20.0754C15.7593 20.0073 15.8346 19.8785 15.8346 19.7389V16.991C15.8346 16.9458 15.871 16.9094 15.9161 16.9094C15.9613 16.9094 15.9976 16.9458 15.9976 16.991V19.7577C15.9976 19.8844 16.0658 20.0018 16.1758 20.0646L16.2242 20.0922C16.3342 20.1549 16.4693 20.1545 16.5784 20.091L18.9262 18.7215C18.9609 18.701 19.0056 18.7098 19.0302 18.7421L19.0311 18.7433L19.034 18.7429ZM10.9392 18.5502C10.9392 18.4096 10.8639 18.28 10.7422 18.2106L10.7355 18.2069C10.6118 18.1362 10.4592 18.1366 10.3358 18.2085L6.86918 20.2306C6.75252 20.2987 6.69147 20.4267 6.69398 20.5618C6.69398 20.5651 6.69398 20.5684 6.69398 20.5718C6.69398 20.5751 6.69398 20.5785 6.69398 20.5818C6.69147 20.7169 6.75252 20.8448 6.86918 20.913L10.3358 22.935C10.4592 23.007 10.6114 23.0078 10.7355 22.9367L10.761 22.9221C10.871 22.859 10.9392 22.7418 10.9392 22.6152V18.5502ZM15.3474 20.5714V20.5614C15.3487 20.4204 15.2747 20.2899 15.153 20.2189L11.706 18.2081C11.5826 18.1362 11.4305 18.1354 11.3063 18.2064L11.2996 18.2102C11.1779 18.28 11.1026 18.4096 11.1026 18.5497V22.6139C11.1026 22.7486 11.1821 22.8656 11.2996 22.9317C11.3021 22.933 11.3042 22.9342 11.3063 22.9354C11.4238 23.004 11.5659 23.0158 11.6834 22.9472L15.153 20.923C15.2747 20.8523 15.3491 20.7214 15.3478 20.5806V20.5706L15.3474 20.5714ZM16.6846 9.49472L19.014 10.8536C19.0495 10.8741 19.0637 10.918 19.0474 10.9557L19.0466 10.9574C19.0274 11.0017 18.9738 11.0192 18.932 10.995L16.5809 9.62352C16.4634 9.55496 16.3217 9.56664 16.2038 9.6352C16.2017 9.63648 16.1991 9.63768 16.197 9.63896C16.0796 9.70504 16.0002 9.82208 16.0002 9.95672V12.713C16.0002 12.7582 15.9638 12.7946 15.9186 12.7946C15.8734 12.7946 15.837 12.7582 15.837 12.713V9.97848C15.837 9.838 15.7618 9.7084 15.6402 9.63896L15.6105 9.62224C15.5005 9.55952 15.3654 9.55992 15.2563 9.62392L12.9018 10.9974C12.8663 11.0184 12.8207 11.0087 12.7961 10.9758L12.7952 10.9745C12.7668 10.9356 12.7781 10.8808 12.8194 10.8566L15.1722 9.48424C15.2889 9.41608 15.3499 9.28856 15.3474 9.15352C15.3474 9.15016 15.3474 9.1468 15.3474 9.14352C15.3474 9.14016 15.3474 9.1368 15.3474 9.13344C15.3499 8.9984 15.2889 8.87048 15.1722 8.80232L11.7056 6.78022C11.5822 6.7083 11.4301 6.70746 11.3058 6.77854L11.2996 6.78189C11.1775 6.8513 11.1018 6.98134 11.1018 7.12183V9.87816C11.1018 9.92328 11.0654 9.95968 11.0203 9.95968C10.9751 9.95968 10.9387 9.92328 10.9387 9.87816V7.10719C10.9387 6.97214 10.8669 6.84378 10.7456 6.78398C10.7418 6.78231 10.7385 6.78022 10.7351 6.77813C10.6177 6.70955 10.4759 6.69785 10.3584 6.76642L6.88882 8.79056C6.76715 8.86168 6.69314 8.99208 6.6944 9.13304V9.14304V9.15312C6.69314 9.294 6.76757 9.42448 6.88882 9.49552L9.22192 10.8566C9.26336 10.8808 9.27464 10.9356 9.24616 10.9745L9.24536 10.9758C9.22112 11.0087 9.17552 11.0184 9.14 10.9974L6.80813 9.63728C6.68478 9.56536 6.53258 9.56456 6.4084 9.6356L6.38248 9.65024C6.27251 9.71336 6.20436 9.83048 6.20436 9.95712V12.7134C6.20436 12.7586 6.16798 12.795 6.12282 12.795C6.07766 12.795 6.04129 12.7586 6.04129 12.7134V9.96424C6.04129 9.8292 5.96938 9.70088 5.84812 9.64104C5.84435 9.63936 5.84101 9.63728 5.83766 9.6352C5.72017 9.56664 5.57842 9.55496 5.46094 9.62352L3.10983 10.995C3.06802 11.0192 3.0145 11.0017 2.99526 10.9574L2.99443 10.9557C2.97812 10.918 2.99234 10.8741 3.02788 10.8536L5.35724 9.49472C5.47891 9.4236 5.55292 9.2932 5.55166 9.15224V9.14224V9.13216C5.55292 8.99128 5.47891 8.8608 5.35724 8.78976L3.03206 7.43334C2.99694 7.41285 2.9823 7.36894 2.99861 7.33173L2.99945 7.33006C3.01868 7.28574 3.0722 7.26776 3.11443 7.29242L5.46135 8.66136C5.57885 8.72992 5.72059 8.71824 5.83808 8.65008C5.84059 8.6488 5.84268 8.6476 5.84478 8.64592C5.96226 8.57984 6.0417 8.4628 6.0417 8.32816V4.2635C6.0417 4.12342 5.96645 3.99381 5.84478 3.9244L5.81509 3.90767C5.70512 3.84495 5.57006 3.84538 5.46094 3.90934L3.0952 5.28917C3.05548 5.31217 3.00488 5.29795 2.98314 5.25739L2.9823 5.25614C2.96182 5.21767 2.9752 5.17042 3.01283 5.14826L5.37647 3.76969C5.48644 3.7053 5.55962 3.58697 5.5525 3.45986C5.54916 3.39756 5.55585 3.33274 5.5755 3.26626C5.63362 3.06723 5.80296 2.91002 6.00617 2.86904C6.1546 2.83935 6.29383 2.86778 6.4084 2.9351C6.5259 3.00451 6.66806 3.01622 6.78597 2.94765L10.2555 0.923904C10.3772 0.852824 10.4512 0.722369 10.45 0.581459V0.571425C10.45 0.204725 10.795 -0.0808561 11.1779 0.0207488C11.3402 0.063816 11.4769 0.183819 11.5434 0.338109C11.5826 0.429678 11.5969 0.519577 11.5918 0.604457C11.5843 0.731149 11.6588 0.84864 11.7683 0.912616L15.2588 2.9489C15.3754 3.01706 15.5168 3.00494 15.633 2.93594C15.7392 2.87281 15.8676 2.84354 16.0051 2.86361C16.2038 2.89287 16.407 3.06849 16.4655 3.26041C16.4864 3.3294 16.4939 3.39672 16.4902 3.46111C16.4826 3.58781 16.557 3.70572 16.6666 3.76969L19.0298 5.14826C19.0674 5.17001 19.0809 5.21767 19.0604 5.25614C19.0604 5.25656 19.0599 5.25698 19.0595 5.25739C19.0378 5.29795 18.9872 5.31217 18.9474 5.28917L16.6043 3.9223C16.481 3.85039 16.3288 3.84955 16.2046 3.92063L16.1791 3.93527C16.0687 3.99841 16.001 4.11548 16.001 4.24259V8.32896C16.001 8.4636 16.0804 8.58072 16.1979 8.64672C16.2004 8.648 16.2025 8.64928 16.2046 8.65096C16.3221 8.71912 16.4638 8.7308 16.5814 8.66224L18.9282 7.29326C18.9701 7.26901 19.024 7.28658 19.0432 7.33131L19.0441 7.33298C19.0604 7.37062 19.0458 7.4141 19.0106 7.43459L16.6854 8.79096C16.5638 8.86168 16.4894 8.99256 16.491 9.13344V9.14352V9.15352C16.4898 9.2944 16.5642 9.42488 16.6854 9.496L16.6846 9.49472ZM10.4495 6.28515C10.4495 6.28181 10.4495 6.27846 10.4495 6.27512C10.4521 6.14006 10.391 6.01211 10.2744 5.94396L6.80771 3.92189C6.68436 3.84997 6.53217 3.84914 6.40798 3.92022L6.40087 3.92398C6.2792 3.99381 6.20394 4.12342 6.20394 4.2635V8.32816C6.20394 8.4548 6.2721 8.57232 6.38206 8.63504L6.40798 8.64968C6.53174 8.72072 6.68436 8.71992 6.80771 8.648L10.2744 6.62551C10.391 6.55735 10.4521 6.42982 10.4495 6.29477C10.4495 6.29142 10.4495 6.2885 10.4495 6.28515ZM10.9392 1.40685C10.9392 1.26635 10.8639 1.13674 10.7422 1.06733L10.7355 1.06356C10.6118 0.99248 10.4592 0.99332 10.3362 1.06523L6.88924 3.07602C6.76757 3.1471 6.69356 3.27755 6.69482 3.41846V3.4285V3.43854C6.69356 3.57944 6.76798 3.7099 6.88924 3.78098L10.3588 5.80514C10.4763 5.87371 10.6181 5.86201 10.7355 5.79386C10.7377 5.7926 10.7402 5.79134 10.7422 5.78967C10.8598 5.72361 10.9392 5.60653 10.9392 5.4719V1.40685ZM11.683 5.8043L15.1526 3.78014C15.2742 3.70906 15.3482 3.57861 15.347 3.4377V3.42766V3.41762C15.3482 3.27672 15.2738 3.14626 15.1526 3.07518L11.7056 1.0644C11.5822 0.99248 11.4301 0.99164 11.3058 1.06273L11.2804 1.07736C11.1704 1.1405 11.1022 1.25758 11.1022 1.38426V5.47064C11.1022 5.60528 11.1817 5.72235 11.2992 5.78842C11.3017 5.78967 11.3038 5.79093 11.3058 5.7926C11.4234 5.86075 11.5656 5.87288 11.683 5.8043ZM15.837 4.24218C15.837 4.11506 15.7689 3.99799 15.659 3.93485L15.6334 3.92022C15.5097 3.84914 15.357 3.84997 15.2337 3.92189L11.7867 5.93267C11.665 6.00334 11.591 6.13421 11.5923 6.27512V6.28515V6.29519C11.591 6.4361 11.6654 6.56655 11.7867 6.63763L15.2563 8.66176C15.3738 8.7304 15.5155 8.71864 15.633 8.65048C15.6351 8.64928 15.6376 8.648 15.6397 8.64632C15.7572 8.58024 15.8366 8.4632 15.8366 8.32856L15.837 4.24218Z" fill="white"/>
</g>
</svg>
