<svg width="633" height="159" viewBox="0 0 633 159" fill="none" xmlns="http://www.w3.org/2000/svg">
<path d="M0 12C0 5.37258 5.37258 0 12 0H621C627.627 0 633 5.37258 633 12V159H0V12Z" fill="#F2F4F9"/>
<rect x="159" y="50.9715" width="61.8216" height="61.825" rx="30.9108" fill="#5B52FF"/>
<path d="M204.853 92.0187C204.025 92.5803 202.958 92.304 202.432 91.5671C201.359 90.0672 199.37 88.2709 196.732 88.1654C196.201 88.1442 195.702 87.879 195.382 87.457C191.844 82.7799 187.412 83.0163 184.052 87.457C183.733 87.879 183.234 88.1442 182.703 88.1654C180.065 88.2709 178.078 90.063 177.003 91.5671C176.476 92.304 175.41 92.5808 174.582 92.0187C173.797 91.4857 173.607 90.5176 173.961 89.7674C174.122 89.4255 175.609 86.4014 173.97 83.0253C173.733 82.5378 173.73 81.9582 173.962 81.4683C174.122 81.1319 175.612 78.1188 173.967 74.7341C173.474 73.7192 174.046 72.3225 175.357 72.1762C176.885 72.0062 177.699 73.5923 177.159 74.7244C176.68 75.729 175.689 78.4387 177.149 81.4536C177.365 81.8993 177.385 82.4219 177.21 82.8814C176.878 83.7537 175.7 87.5821 176.863 88.2529C177.999 88.9084 180.58 86.118 181.254 85.2773C181.56 84.8948 182.017 84.6503 182.506 84.6114C183.609 84.5239 186.399 84.0232 188.246 81.2498C188.946 80.1977 190.488 80.1977 191.189 81.2498C193.035 84.0232 195.825 84.5239 196.928 84.6114C197.417 84.6503 197.874 84.8948 198.18 85.2773C198.726 85.9589 201.438 88.9067 202.571 88.2529C203.692 87.6063 202.652 84.0031 202.224 82.8814C202.049 82.4212 202.069 81.8993 202.285 81.4536C203.745 78.4387 202.754 75.729 202.275 74.7244C201.735 73.5917 202.549 72.0062 204.077 72.1762C205.388 72.3219 205.96 73.7186 205.467 74.7341C203.823 78.1182 205.313 81.1313 205.472 81.4683C205.703 81.9575 205.701 82.5378 205.465 83.0253C203.824 86.4014 205.312 89.4255 205.474 89.7674C205.828 90.5176 205.639 91.4857 204.853 92.0187ZM201.299 92.0285C201.342 92.0849 201.326 92.1662 201.265 92.2021L197.876 94.1876C197.717 94.2811 197.612 94.4528 197.621 94.6379C197.626 94.7278 197.616 94.8219 197.588 94.9184C197.504 95.2073 197.259 95.4355 196.965 95.495C196.75 95.5382 196.549 95.4969 196.384 95.3991C196.214 95.299 196.009 95.2813 195.839 95.3809L190.824 98.3188C190.648 98.422 190.541 98.6115 190.542 98.816V98.8305C190.542 99.332 190.099 99.7302 189.585 99.65C189.274 99.6014 189.009 99.3648 188.923 99.06C188.896 98.966 188.887 98.8744 188.892 98.7868C188.901 98.6218 188.779 98.4191 188.638 98.3359L183.597 95.3821C183.426 95.2821 183.22 95.2996 183.05 95.4004C182.884 95.4981 182.681 95.54 182.466 95.495C182.169 95.4338 181.935 95.2164 181.848 94.9245C181.819 94.8261 181.809 94.7308 181.813 94.6392C181.824 94.4541 181.719 94.2811 181.559 94.1876L178.17 92.2015C178.109 92.1656 178.093 92.0849 178.136 92.0285C178.136 92.0279 178.137 92.0273 178.137 92.0266C178.173 91.9798 178.238 91.967 178.289 91.9968L181.681 93.9848C181.851 94.0844 182.056 94.0674 182.226 93.9684C182.229 93.9667 182.232 93.9648 182.235 93.9623C182.405 93.8665 182.52 93.6965 182.52 93.5011V89.4844C182.52 89.419 182.572 89.3661 182.638 89.3661C182.703 89.3661 182.756 89.419 182.756 89.4844V93.5011C182.756 93.6965 182.87 93.8665 183.04 93.9623C183.044 93.9642 183.047 93.9659 183.05 93.9684C183.22 94.0674 183.425 94.0844 183.594 93.9848L188.609 91.0462C188.785 90.9431 188.892 90.7537 188.89 90.5491V90.5345V90.52C188.892 90.3156 188.784 90.1261 188.609 90.0229L185.252 88.0561C185.19 88.0204 185.175 87.9378 185.219 87.8819C185.219 87.8813 185.22 87.8807 185.22 87.8801C185.257 87.8346 185.321 87.8225 185.371 87.8517L188.758 89.8365C188.928 89.9361 189.133 89.9191 189.302 89.8202C189.305 89.8183 189.309 89.8165 189.312 89.814C189.482 89.7182 189.597 89.5482 189.597 89.3528V85.3459C189.597 85.2804 189.649 85.2275 189.715 85.2275C189.78 85.2275 189.833 85.2804 189.833 85.3459V89.3534C189.833 89.5488 189.947 89.7188 190.117 89.8147C190.121 89.8165 190.124 89.8183 190.127 89.8208C190.297 89.9197 190.501 89.9367 190.671 89.8371L194.058 87.8523C194.109 87.8231 194.173 87.8353 194.209 87.8807C194.209 87.8813 194.21 87.8819 194.21 87.8825C194.254 87.9384 194.238 88.021 194.177 88.0567L190.821 90.0235C190.645 90.1261 190.538 90.3161 190.54 90.5205V90.5352V90.5497C190.538 90.7543 190.645 90.9437 190.821 91.0469L195.836 93.9855C196.005 94.085 196.21 94.068 196.381 93.9684L196.39 93.9629C196.566 93.864 196.675 93.677 196.675 93.4744V89.4852C196.675 89.4195 196.728 89.3667 196.793 89.3667C196.858 89.3667 196.911 89.4195 196.911 89.4852V93.5017C196.911 93.6856 197.009 93.856 197.168 93.9472L197.238 93.9873C197.397 94.0783 197.592 94.0777 197.75 93.9855L201.143 91.9974C201.193 91.9676 201.258 91.9804 201.294 92.0273L201.295 92.029L201.299 92.0285ZM189.6 91.7487C189.6 91.5446 189.491 91.3564 189.315 91.2557L189.305 91.2503C189.127 91.1477 188.906 91.1483 188.728 91.2526L183.718 94.1882C183.549 94.2871 183.461 94.4729 183.464 94.669C183.464 94.6738 183.464 94.6786 183.464 94.6835C183.464 94.6883 183.464 94.6932 183.464 94.698C183.461 94.8942 183.549 95.0798 183.718 95.1788L188.728 98.1142C188.906 98.2188 189.126 98.2199 189.305 98.1167L189.342 98.0955C189.501 98.0039 189.6 97.8338 189.6 97.65V91.7487ZM195.971 94.6829V94.6684C195.973 94.4637 195.866 94.2743 195.69 94.1712L190.708 91.2521C190.53 91.1477 190.31 91.1465 190.13 91.2496L190.121 91.2551C189.945 91.3564 189.836 91.5446 189.836 91.748V97.6481C189.836 97.8436 189.951 98.0135 190.121 98.1095C190.124 98.1113 190.127 98.1131 190.13 98.1148C190.3 98.2144 190.506 98.2315 190.675 98.132L195.69 95.1934C195.866 95.0907 195.973 94.9007 195.971 94.6963L195.971 94.6829ZM197.904 78.6026L201.27 80.5753C201.321 80.6051 201.342 80.6688 201.318 80.7236L201.317 80.726C201.289 80.7903 201.212 80.8157 201.152 80.7806L197.754 78.7896C197.584 78.6901 197.379 78.707 197.209 78.8065C197.206 78.8084 197.202 78.8101 197.199 78.812C197.029 78.9079 196.914 79.0778 196.914 79.2733V83.2747C196.914 83.3403 196.862 83.3931 196.796 83.3931C196.731 83.3931 196.679 83.3403 196.679 83.2747V79.3049C196.679 79.101 196.57 78.9128 196.394 78.812L196.351 78.7877C196.192 78.6967 195.997 78.6973 195.839 78.7902L192.436 80.7841C192.385 80.8146 192.319 80.8005 192.284 80.7527L192.282 80.7508C192.241 80.6944 192.258 80.6148 192.317 80.5797L195.718 78.5874C195.886 78.4884 195.975 78.3033 195.971 78.1073C195.971 78.1024 195.971 78.0975 195.971 78.0928C195.971 78.0879 195.971 78.083 195.971 78.0781C195.975 77.8821 195.886 77.6964 195.718 77.5974L190.708 74.6619C190.529 74.5575 190.309 74.5563 190.13 74.6594L190.121 74.6643C189.944 74.7651 189.835 74.9539 189.835 75.1578V79.1593C189.835 79.2248 189.782 79.2776 189.717 79.2776C189.652 79.2776 189.599 79.2248 189.599 79.1593V75.1366C189.599 74.9405 189.495 74.7542 189.32 74.6673C189.315 74.6649 189.31 74.6619 189.305 74.6589C189.135 74.5593 188.93 74.5423 188.76 74.6419L183.746 77.5804C183.57 77.6836 183.463 77.8729 183.465 78.0775V78.0921V78.1067C183.463 78.3112 183.571 78.5006 183.746 78.6038L187.118 80.5797C187.178 80.6148 187.194 80.6944 187.153 80.7508L187.152 80.7527C187.117 80.8005 187.051 80.8146 187 80.7841L183.629 78.8096C183.451 78.7052 183.231 78.704 183.052 78.8071L183.014 78.8284C182.855 78.92 182.757 79.09 182.757 79.2739V83.2753C182.757 83.3409 182.704 83.3937 182.639 83.3937C182.574 83.3937 182.521 83.3409 182.521 83.2753V79.2842C182.521 79.0882 182.417 78.9019 182.242 78.815C182.236 78.8126 182.232 78.8096 182.227 78.8065C182.057 78.707 181.852 78.6901 181.682 78.7896L178.284 80.7806C178.224 80.8157 178.147 80.7903 178.119 80.726L178.118 80.7236C178.094 80.6688 178.115 80.6051 178.166 80.5753L181.532 78.6026C181.708 78.4994 181.815 78.3101 181.813 78.1054V78.0909V78.0763C181.815 77.8717 181.708 77.6823 181.532 77.5792L178.172 75.61C178.121 75.5803 178.1 75.5165 178.124 75.4625L178.125 75.4601C178.153 75.3958 178.23 75.3697 178.291 75.4055L181.683 77.3928C181.853 77.4923 182.058 77.4754 182.227 77.3764C182.231 77.3746 182.234 77.3728 182.237 77.3704C182.407 77.2744 182.522 77.1045 182.522 76.9091V71.0083C182.522 70.8049 182.413 70.6168 182.237 70.516L182.194 70.4917C182.035 70.4007 181.84 70.4013 181.682 70.4941L178.263 72.4973C178.206 72.5307 178.133 72.51 178.101 72.4512L178.1 72.4493C178.07 72.3935 178.09 72.3249 178.144 72.2927L181.56 70.2914C181.719 70.1979 181.825 70.0262 181.815 69.8416C181.81 69.7512 181.819 69.6571 181.848 69.5606C181.932 69.2716 182.177 69.0434 182.47 68.9839C182.685 68.9408 182.886 68.9821 183.052 69.0798C183.221 69.1806 183.427 69.1976 183.597 69.098L188.612 66.1601C188.788 66.0569 188.895 65.8675 188.893 65.663V65.6484C188.893 65.1161 189.391 64.7015 189.945 64.849C190.179 64.9115 190.377 65.0857 190.473 65.3097C190.53 65.4426 190.55 65.5731 190.543 65.6964C190.532 65.8803 190.64 66.0508 190.798 66.1437L195.843 69.0999C196.011 69.1988 196.216 69.1812 196.384 69.081C196.537 68.9894 196.723 68.9469 196.921 68.976C197.209 69.0185 197.502 69.2735 197.587 69.5521C197.617 69.6522 197.628 69.75 197.623 69.8434C197.612 70.0274 197.719 70.1985 197.877 70.2914L201.293 72.2927C201.347 72.3243 201.367 72.3935 201.337 72.4493C201.337 72.4499 201.336 72.4506 201.336 72.4512C201.305 72.51 201.231 72.5307 201.174 72.4973L197.787 70.513C197.609 70.4086 197.389 70.4073 197.21 70.5105L197.173 70.5318C197.013 70.6235 196.916 70.7934 196.916 70.9779V76.9102C196.916 77.1057 197.03 77.2757 197.2 77.3715C197.204 77.3734 197.207 77.3753 197.21 77.3777C197.38 77.4766 197.584 77.4936 197.754 77.3941L201.146 75.4067C201.207 75.3715 201.285 75.397 201.312 75.4619L201.314 75.4643C201.337 75.519 201.316 75.5821 201.265 75.6119L197.905 77.5809C197.729 77.6836 197.621 77.8736 197.624 78.0781V78.0928V78.1073C197.622 78.3118 197.73 78.5012 197.905 78.6045L197.904 78.6026ZM188.892 73.9432C188.892 73.9383 188.892 73.9335 188.892 73.9286C188.896 73.7325 188.808 73.5468 188.639 73.4479L183.629 70.5124C183.45 70.408 183.231 70.4068 183.051 70.5099L183.041 70.5154C182.865 70.6168 182.756 70.8049 182.756 71.0083V76.9091C182.756 77.0929 182.855 77.2635 183.014 77.3546L183.051 77.3758C183.23 77.479 183.45 77.4778 183.629 77.3734L188.639 74.4373C188.808 74.3383 188.896 74.1532 188.892 73.9571C188.892 73.9523 188.892 73.948 188.892 73.9432ZM189.6 66.8612C189.6 66.6572 189.491 66.4691 189.315 66.3683L189.305 66.3628C189.127 66.2597 188.906 66.2609 188.728 66.3653L183.747 69.2844C183.571 69.3876 183.464 69.577 183.466 69.7815V69.7961V69.8107C183.464 70.0152 183.571 70.2046 183.747 70.3078L188.761 73.2463C188.931 73.3459 189.136 73.3289 189.305 73.23C189.309 73.2281 189.312 73.2263 189.315 73.2239C189.485 73.128 189.6 72.958 189.6 72.7626V66.8612ZM190.675 73.2451L195.689 70.3066C195.865 70.2034 195.972 70.014 195.97 69.8095V69.7949V69.7803C195.972 69.5758 195.865 69.3864 195.689 69.2832L190.708 66.3641C190.529 66.2597 190.309 66.2584 190.13 66.3616L190.093 66.3829C189.934 66.4745 189.835 66.6445 189.835 66.8284V72.7607C189.835 72.9562 189.95 73.1261 190.12 73.2221C190.124 73.2239 190.127 73.2257 190.13 73.2281C190.3 73.3271 190.505 73.3447 190.675 73.2451ZM196.679 70.9773C196.679 70.7928 196.58 70.6228 196.421 70.5312L196.384 70.5099C196.205 70.4068 195.985 70.408 195.807 70.5124L190.825 73.4315C190.649 73.5341 190.542 73.7241 190.544 73.9286V73.9432V73.9578C190.542 74.1623 190.649 74.3517 190.825 74.4549L195.839 77.3934C196.009 77.493 196.214 77.4759 196.384 77.377C196.387 77.3753 196.39 77.3734 196.393 77.371C196.563 77.275 196.678 77.1051 196.678 76.9097L196.679 70.9773Z" fill="white"/>
<path d="M220.435 81.8841H257.604C261.567 81.8841 264.779 78.6719 264.779 74.7095V51.5152C264.779 47.5528 267.991 44.3406 271.953 44.3406H312.587" stroke="#5B52FF" stroke-width="1.02494" stroke-linejoin="round"/>
<path d="M221.019 82.1095H287.751C291.713 82.1095 294.925 85.3217 294.925 89.2841V107.928C294.925 111.89 298.137 115.102 302.1 115.102H374.606" stroke="#5B52FF" stroke-width="1.02494" stroke-linejoin="round"/>
<rect x="313.11" y="25" width="98.394" height="38.9476" rx="19.4738" fill="white"/>
<rect x="313.678" y="25.5688" width="97.2564" height="37.81" rx="18.905" stroke="#5B52FF" stroke-opacity="0.2" stroke-width="1.13768"/>
<rect x="374.606" y="95.7207" width="98.394" height="38.9476" rx="19.4738" fill="white"/>
<rect x="375.175" y="96.2896" width="97.2564" height="37.81" rx="18.905" stroke="#5B52FF" stroke-opacity="0.2" stroke-width="1.13768"/>
</svg>
