<svg width="633" height="159" viewBox="0 0 633 159" fill="none" xmlns="http://www.w3.org/2000/svg">
<path d="M0 12C0 5.37258 5.37258 0 12 0H621C627.627 0 633 5.37258 633 12V159H0V12Z" fill="#F2F4F9"/>
<rect x="273" y="36" width="87" height="87" rx="43.5" fill="#5B52FF"/>
<rect x="200" y="49" width="61" height="61" rx="30.5" fill="white"/>
<rect x="200.5" y="49.5" width="60" height="60" rx="30" stroke="#5B52FF" stroke-opacity="0.2"/>
<rect x="154" y="62.5" width="34" height="34" rx="17" fill="white"/>
<rect x="154.5" y="63" width="33" height="33" rx="16.5" stroke="#5B52FF" stroke-opacity="0.2"/>
<rect x="445" y="62.5" width="34" height="34" rx="17" fill="white"/>
<rect x="445.5" y="63" width="33" height="33" rx="16.5" stroke="#5B52FF" stroke-opacity="0.2"/>
<rect x="372" y="49" width="61" height="61" rx="30.5" fill="white"/>
<rect x="372.5" y="49.5" width="60" height="60" rx="30" stroke="#5B52FF" stroke-opacity="0.2"/>
<path d="M337.746 94.1811C336.554 94.9899 335.017 94.592 334.258 93.5305C332.714 91.3699 329.848 88.7824 326.047 88.6304C325.283 88.5999 324.564 88.2178 324.104 87.6099C319.007 80.8727 312.623 81.2131 307.783 87.6099C307.323 88.2178 306.604 88.5999 305.839 88.6304C302.039 88.7824 299.178 91.3638 297.629 93.5305C296.87 94.592 295.333 94.9908 294.141 94.1811C293.01 93.4132 292.737 92.0188 293.246 90.938C293.478 90.4456 295.621 86.0894 293.259 81.2261C292.918 80.5239 292.914 79.6891 293.249 78.9833C293.478 78.4988 295.625 74.1584 293.256 69.2828C292.545 67.8208 293.37 65.8089 295.258 65.5981C297.459 65.3533 298.632 67.6381 297.853 69.2688C297.163 70.7159 295.736 74.6193 297.84 78.9622C298.15 79.6042 298.179 80.357 297.927 81.0189C297.448 82.2755 295.752 87.7902 297.427 88.7565C299.063 89.7007 302.781 85.6812 303.752 84.4702C304.192 83.9191 304.851 83.567 305.556 83.5109C307.145 83.3848 311.164 82.6636 313.823 78.6686C314.832 77.1531 317.054 77.1531 318.063 78.6686C320.722 82.6636 324.741 83.3848 326.331 83.5109C327.035 83.567 327.693 83.9191 328.134 84.4702C328.92 85.452 332.827 89.6982 334.459 88.7565C336.073 87.8251 334.575 82.6347 333.959 81.0189C333.707 80.356 333.737 79.6042 334.047 78.9622C336.15 74.6193 334.723 70.7159 334.033 69.2688C333.254 67.6372 334.428 65.3533 336.628 65.5981C338.516 65.808 339.341 67.82 338.63 69.2828C336.262 74.1575 338.408 78.4979 338.637 78.9833C338.971 79.688 338.967 80.5239 338.627 81.2261C336.265 86.0894 338.408 90.4456 338.64 90.938C339.15 92.0188 338.878 93.4132 337.746 94.1811ZM332.627 94.1951C332.689 94.2764 332.666 94.3935 332.578 94.4452L327.696 97.3053C327.466 97.44 327.315 97.6874 327.329 97.954C327.336 98.0834 327.322 98.2189 327.281 98.358C327.16 98.7742 326.808 99.1029 326.384 99.1886C326.075 99.2507 325.785 99.1913 325.547 99.0504C325.302 98.9063 325.007 98.8808 324.761 99.0243L317.538 103.256C317.284 103.405 317.13 103.678 317.132 103.972V103.993C317.132 104.716 316.493 105.289 315.752 105.174C315.304 105.104 314.923 104.763 314.799 104.324C314.761 104.188 314.748 104.057 314.755 103.93C314.768 103.693 314.592 103.401 314.388 103.281L307.127 99.0259C306.881 98.8819 306.584 98.9072 306.339 99.0523C306.1 99.193 305.808 99.2535 305.498 99.1886C305.071 99.1004 304.733 98.7873 304.608 98.3668C304.566 98.225 304.551 98.0878 304.558 97.9559C304.573 97.6892 304.421 97.44 304.191 97.3053L299.309 94.4443C299.222 94.3927 299.198 94.2764 299.26 94.1951C299.26 94.1942 299.262 94.1934 299.262 94.1923C299.313 94.125 299.407 94.1066 299.48 94.1495L304.367 97.0132C304.612 97.1566 304.907 97.1321 305.152 96.9895C305.156 96.987 305.161 96.9843 305.166 96.9807C305.41 96.8427 305.576 96.5978 305.576 96.3164V90.5305C305.576 90.4361 305.651 90.36 305.745 90.36C305.839 90.36 305.915 90.4361 305.915 90.5305V96.3164C305.915 96.5978 306.08 96.8427 306.325 96.9807C306.33 96.9835 306.335 96.986 306.339 96.9895C306.584 97.1321 306.879 97.1566 307.123 97.0132L314.346 92.7802C314.6 92.6317 314.754 92.3588 314.751 92.0641V92.043V92.0221C314.754 91.7277 314.599 91.4548 314.346 91.3061L309.511 88.4729C309.422 88.4215 309.4 88.3025 309.464 88.222C309.464 88.2211 309.466 88.2203 309.466 88.2195C309.518 88.1538 309.61 88.1365 309.682 88.1785L314.561 91.0376C314.806 91.181 315.101 91.1566 315.346 91.0141C315.35 91.0114 315.356 91.0087 315.36 91.0052C315.605 90.8671 315.77 90.6223 315.77 90.3408V84.5689C315.77 84.4746 315.845 84.3984 315.939 84.3984C316.034 84.3984 316.109 84.4746 316.109 84.5689V90.3416C316.109 90.6231 316.275 90.868 316.519 91.0062C316.525 91.0087 316.529 91.0114 316.533 91.015C316.778 91.1574 317.073 91.1819 317.318 91.0384L322.197 88.1793C322.269 88.1373 322.361 88.1549 322.413 88.2203C322.413 88.2211 322.415 88.222 322.415 88.2228C322.479 88.3033 322.456 88.4223 322.368 88.4738L317.533 91.3069C317.279 91.4548 317.125 91.7285 317.128 92.0229V92.0441V92.065C317.125 92.3596 317.28 92.6325 317.533 92.7812L324.757 97.0142C325.001 97.1575 325.296 97.133 325.542 96.9895L325.556 96.9816C325.809 96.8392 325.966 96.5698 325.966 96.2779V90.5315C325.966 90.437 326.042 90.3609 326.136 90.3609C326.23 90.3609 326.305 90.437 326.305 90.5315V96.3172C326.305 96.5822 326.447 96.8277 326.676 96.959L326.777 97.0167C327.006 97.1478 327.287 97.147 327.514 97.0142L332.402 94.1503C332.474 94.1074 332.568 94.1258 332.619 94.1934L332.621 94.1959L332.627 94.1951ZM315.774 93.7921C315.774 93.4981 315.617 93.2271 315.364 93.0819L315.35 93.0742C315.093 92.9263 314.775 92.9272 314.518 93.0775L307.301 97.3061C307.058 97.4485 306.931 97.7162 306.936 97.9987C306.936 98.0056 306.936 98.0125 306.936 98.0197C306.936 98.0266 306.936 98.0337 306.936 98.0406C306.931 98.3231 307.058 98.5905 307.301 98.7332L314.518 102.962C314.775 103.112 315.092 103.114 315.35 102.965L315.403 102.935C315.632 102.803 315.774 102.558 315.774 102.293V93.7921ZM324.952 98.0188V97.9979C324.954 97.703 324.8 97.4301 324.547 97.2817L317.371 93.0767C317.114 92.9263 316.797 92.9247 316.538 93.0731L316.525 93.0811C316.271 93.2271 316.114 93.4981 316.114 93.791V102.29C316.114 102.572 316.28 102.816 316.525 102.955C316.53 102.957 316.534 102.96 316.538 102.962C316.783 103.106 317.079 103.131 317.324 102.987L324.547 98.7541C324.8 98.6062 324.955 98.3325 324.952 98.0381L324.952 98.0188ZM327.735 74.8553L332.585 77.697C332.659 77.7399 332.688 77.8317 332.655 77.9105L332.653 77.9141C332.613 78.0067 332.501 78.0433 332.414 77.9927L327.52 75.1247C327.275 74.9813 326.98 75.0057 326.735 75.1491C326.73 75.1518 326.725 75.1543 326.72 75.1569C326.476 75.2951 326.311 75.5399 326.311 75.8214V81.5854C326.311 81.6799 326.235 81.756 326.141 81.756C326.047 81.756 325.971 81.6799 325.971 81.5854V75.867C325.971 75.5732 325.814 75.3022 325.561 75.1569L325.499 75.122C325.27 74.9908 324.989 74.9917 324.762 75.1255L319.86 77.9977C319.786 78.0416 319.691 78.0213 319.64 77.9525L319.638 77.9498C319.579 77.8685 319.603 77.7539 319.689 77.7033L324.587 74.8334C324.83 74.6909 324.957 74.4242 324.952 74.1418C324.952 74.1348 324.952 74.1277 324.952 74.1209C324.952 74.1139 324.952 74.1068 324.952 74.0998C324.957 73.8174 324.83 73.5499 324.587 73.4074L317.37 69.1788C317.113 69.0284 316.796 69.0266 316.537 69.1753L316.525 69.1823C316.27 69.3274 316.113 69.5993 316.113 69.8931V75.6572C316.113 75.7515 316.037 75.8276 315.943 75.8276C315.849 75.8276 315.773 75.7515 315.773 75.6572V69.8625C315.773 69.5801 315.624 69.3117 315.371 69.1866C315.363 69.1831 315.356 69.1788 315.349 69.1744C315.105 69.031 314.81 69.0065 314.565 69.1499L307.342 73.3828C307.088 73.5315 306.934 73.8042 306.937 74.099V74.1199V74.141C306.934 74.4356 307.089 74.7084 307.342 74.857L312.199 77.7033C312.285 77.7539 312.309 77.8685 312.249 77.9498L312.248 77.9525C312.197 78.0213 312.102 78.0416 312.028 77.9977L307.174 75.1534C306.917 75.003 306.6 75.0014 306.342 75.1499L306.288 75.1805C306.059 75.3125 305.917 75.5575 305.917 75.8223V81.5862C305.917 81.6807 305.841 81.7568 305.747 81.7568C305.653 81.7568 305.577 81.6807 305.577 81.5862V75.8372C305.577 75.5548 305.428 75.2864 305.175 75.1613C305.167 75.1578 305.16 75.1534 305.153 75.1491C304.909 75.0057 304.614 74.9813 304.369 75.1247L299.474 77.9927C299.387 78.0433 299.276 78.0067 299.236 77.9141L299.234 77.9105C299.2 77.8317 299.23 77.7399 299.304 77.697L304.153 74.8553C304.406 74.7066 304.561 74.4339 304.558 74.1391V74.1182V74.0971C304.561 73.8025 304.406 73.5297 304.153 73.3811L299.312 70.5446C299.239 70.5017 299.209 70.4099 299.243 70.3321L299.245 70.3286C299.285 70.2359 299.396 70.1983 299.484 70.2499L304.37 73.1126C304.615 73.256 304.91 73.2315 305.154 73.089C305.159 73.0863 305.164 73.0838 305.168 73.0803C305.413 72.9421 305.578 72.6974 305.578 72.4158V63.9158C305.578 63.6229 305.421 63.3518 305.168 63.2067L305.106 63.1717C304.877 63.0405 304.596 63.0414 304.369 63.1752L299.444 66.0607C299.361 66.1088 299.256 66.079 299.211 65.9942L299.209 65.9916C299.166 65.9112 299.194 65.8124 299.272 65.766L304.193 62.8832C304.422 62.7485 304.575 62.5011 304.56 62.2352C304.553 62.105 304.567 61.9694 304.608 61.8304C304.729 61.4142 305.081 61.0854 305.504 60.9997C305.813 60.9376 306.103 60.9971 306.342 61.1379C306.586 61.283 306.882 61.3075 307.128 61.1641L314.351 56.9321C314.604 56.7834 314.758 56.5106 314.756 56.2159V56.195C314.756 55.4281 315.474 54.8309 316.271 55.0434C316.609 55.1335 316.894 55.3844 317.032 55.7071C317.114 55.8985 317.143 56.0865 317.133 56.264C317.117 56.529 317.272 56.7747 317.5 56.9085L324.767 61.1667C325.01 61.3093 325.304 61.2839 325.546 61.1396C325.767 61.0076 326.035 60.9464 326.321 60.9884C326.735 61.0496 327.158 61.4168 327.279 61.8182C327.323 61.9624 327.338 62.1032 327.331 62.2379C327.315 62.5028 327.47 62.7494 327.698 62.8832L332.618 65.766C332.696 65.8115 332.724 65.9112 332.682 65.9916C332.682 65.9925 332.681 65.9934 332.68 65.9942C332.635 66.079 332.529 66.1088 332.446 66.0607L327.568 63.2023C327.312 63.0519 326.995 63.0502 326.736 63.1988L326.683 63.2294C326.453 63.3615 326.312 63.6063 326.312 63.8721V72.4175C326.312 72.699 326.478 72.944 326.722 73.082C326.727 73.0847 326.732 73.0873 326.736 73.0908C326.981 73.2334 327.276 73.2578 327.521 73.1144L332.406 70.2516C332.494 70.2009 332.606 70.2377 332.646 70.3312L332.648 70.3347C332.682 70.4134 332.651 70.5043 332.578 70.5472L327.737 73.3836C327.484 73.5315 327.329 73.8052 327.332 74.0998V74.1209V74.1418C327.33 74.4364 327.485 74.7093 327.737 74.858L327.735 74.8553ZM314.755 68.1435C314.755 68.1365 314.755 68.1295 314.755 68.1225C314.76 67.8401 314.633 67.5725 314.39 67.43L307.173 63.2014C306.916 63.051 306.599 63.0493 306.341 63.1979L306.326 63.2058C306.073 63.3518 305.916 63.6229 305.916 63.9158V72.4158C305.916 72.6806 306.058 72.9264 306.287 73.0576L306.341 73.0882C306.598 73.2367 306.916 73.2351 307.173 73.0847L314.39 68.8552C314.633 68.7127 314.76 68.446 314.755 68.1636C314.755 68.1566 314.755 68.1505 314.755 68.1435ZM315.774 57.942C315.774 57.6482 315.617 57.3771 315.364 57.232L315.35 57.2241C315.093 57.0755 314.775 57.0772 314.519 57.2276L307.343 61.4326C307.089 61.5812 306.935 61.854 306.938 62.1487V62.1697V62.1907C306.935 62.4853 307.09 62.7581 307.343 62.9068L314.566 67.1397C314.81 67.2831 315.106 67.2586 315.35 67.1161C315.355 67.1135 315.36 67.1108 315.364 67.1073C315.609 66.9692 315.774 66.7243 315.774 66.4428V57.942ZM317.323 67.1379L324.546 62.905C324.799 62.7564 324.953 62.4836 324.951 62.1889V62.1679V62.1469C324.953 61.8523 324.798 61.5794 324.546 61.4308L317.37 57.2259C317.113 57.0755 316.796 57.0737 316.537 57.2224L316.485 57.253C316.256 57.385 316.114 57.6298 316.114 57.8948V66.4402C316.114 66.7217 316.279 66.9666 316.524 67.1047C316.529 67.1073 316.533 67.11 316.537 67.1135C316.782 67.256 317.078 67.2813 317.323 67.1379ZM325.971 63.8712C325.971 63.6054 325.829 63.3606 325.6 63.2285L325.547 63.1979C325.289 63.0493 324.972 63.051 324.715 63.2014L317.539 67.4064C317.285 67.5542 317.131 67.8278 317.134 68.1225V68.1435V68.1645C317.131 68.4591 317.286 68.7319 317.539 68.8806L324.762 73.1134C325.007 73.257 325.302 73.2324 325.546 73.0898C325.551 73.0873 325.556 73.0847 325.56 73.0811C325.805 72.943 325.97 72.6982 325.97 72.4166L325.971 63.8712Z" fill="white"/>
</svg>
