<svg width="418" height="159" viewBox="0 0 418 159" fill="none" xmlns="http://www.w3.org/2000/svg">
<path d="M0 12C0 5.37258 5.37258 0 12 0H406C412.627 0 418 5.37258 418 12V159H0V12Z" fill="#F2F4F9"/>
<g clip-path="url(#clip0_7_342)">
<path d="M177.087 41H120.913C115.438 41 111 45.4382 111 50.913V107.087C111 112.562 115.438 117 120.913 117H177.087C182.562 117 187 112.562 187 107.087V50.913C187 45.4382 182.562 41 177.087 41Z" fill="#5B52FF"/>
<path d="M170.086 93.0867C168.893 93.8956 167.357 93.4976 166.598 92.4361C165.053 90.2755 162.188 87.6881 158.387 87.536C157.623 87.5055 156.903 87.1235 156.443 86.5155C151.347 79.7783 144.963 80.1188 140.123 86.5155C139.663 87.1235 138.943 87.5055 138.179 87.536C134.378 87.6881 131.517 90.2695 129.969 92.4361C129.209 93.4976 127.673 93.8964 126.48 93.0867C125.35 92.3188 125.076 90.9244 125.586 89.8437C125.818 89.3512 127.96 84.995 125.599 80.1318C125.257 79.4295 125.254 78.5947 125.588 77.8889C125.818 77.4044 127.965 73.064 125.595 68.1885C124.885 66.7265 125.709 64.7145 127.597 64.5038C129.799 64.259 130.971 66.5437 130.193 68.1745C129.503 69.6216 128.076 73.5249 130.179 77.8678C130.49 78.5098 130.519 79.2627 130.266 79.9245C129.787 81.1811 128.092 86.6958 129.767 87.6621C131.403 88.6063 135.121 84.5868 136.091 83.3758C136.532 82.8248 137.191 82.4726 137.895 82.4166C139.485 82.2905 143.504 81.5692 146.163 77.5742C147.172 76.0587 149.393 76.0587 150.402 77.5742C153.062 81.5692 157.08 82.2905 158.67 82.4166C159.374 82.4726 160.032 82.8248 160.474 83.3758C161.26 84.3576 165.167 88.6038 166.799 87.6621C168.413 86.7307 166.915 81.5404 166.299 79.9245C166.047 79.2616 166.076 78.5098 166.386 77.8678C168.489 73.5249 167.063 69.6216 166.372 68.1745C165.594 66.5429 166.767 64.259 168.968 64.5038C170.856 64.7136 171.68 66.7256 170.97 68.1885C168.601 73.0632 170.748 77.4036 170.977 77.8889C171.31 78.5937 171.307 79.4295 170.967 80.1318C168.604 84.995 170.747 89.3512 170.98 89.8437C171.49 90.9244 171.217 92.3188 170.086 93.0867ZM164.966 93.1007C165.028 93.1821 165.006 93.2992 164.918 93.3508L160.036 96.211C159.806 96.3456 159.655 96.593 159.669 96.8596C159.676 96.9891 159.662 97.1246 159.621 97.2637C159.5 97.6798 159.147 98.0085 158.723 98.0943C158.414 98.1564 158.124 98.097 157.887 97.9561C157.642 97.812 157.346 97.7865 157.1 97.9299L149.877 102.162C149.624 102.311 149.469 102.583 149.472 102.878V102.899C149.472 103.621 148.833 104.195 148.092 104.079C147.644 104.009 147.262 103.669 147.139 103.23C147.101 103.094 147.087 102.962 147.094 102.836C147.107 102.598 146.932 102.306 146.728 102.187L139.466 97.9316C139.221 97.7875 138.924 97.8128 138.679 97.9579C138.44 98.0987 138.148 98.1591 137.838 98.0943C137.41 98.006 137.073 97.693 136.947 97.2724C136.905 97.1307 136.891 96.9935 136.898 96.8615C136.912 96.5949 136.761 96.3456 136.531 96.211L131.649 93.35C131.561 93.2983 131.538 93.1821 131.6 93.1007C131.6 93.0999 131.602 93.099 131.602 93.098C131.653 93.0307 131.747 93.0123 131.82 93.0551L136.707 95.9188C136.952 96.0623 137.247 96.0378 137.491 95.8952C137.496 95.8927 137.501 95.89 137.505 95.8864C137.75 95.7484 137.915 95.5035 137.915 95.222V89.4361C137.915 89.3418 137.991 89.2657 138.085 89.2657C138.179 89.2657 138.255 89.3418 138.255 89.4361V95.222C138.255 95.5035 138.42 95.7484 138.665 95.8864C138.67 95.8891 138.674 95.8916 138.679 95.8952C138.923 96.0378 139.218 96.0623 139.463 95.9188L146.686 91.6858C146.939 91.5373 147.093 91.2644 147.091 90.9698V90.9487V90.9278C147.093 90.6333 146.939 90.3604 146.686 90.2117L141.851 87.3786C141.762 87.3271 141.74 87.2081 141.804 87.1276C141.804 87.1268 141.805 87.126 141.805 87.1251C141.858 87.0595 141.95 87.0421 142.022 87.0841L146.901 89.9432C147.146 90.0867 147.441 90.0622 147.685 89.9198C147.69 89.9171 147.695 89.9144 147.7 89.9108C147.944 89.7728 148.109 89.5279 148.109 89.2464V83.4745C148.109 83.3802 148.185 83.3041 148.279 83.3041C148.373 83.3041 148.449 83.3802 148.449 83.4745V89.2473C148.449 89.5287 148.614 89.7736 148.859 89.9119C148.864 89.9144 148.868 89.9171 148.873 89.9206C149.117 90.063 149.412 90.0875 149.657 89.9441L154.536 87.085C154.608 87.0429 154.701 87.0605 154.753 87.126C154.753 87.1268 154.755 87.1276 154.755 87.1285C154.818 87.209 154.796 87.328 154.708 87.3794L149.872 90.2126C149.619 90.3604 149.465 90.6342 149.467 90.9286V90.9497V90.9706C149.465 91.2653 149.62 91.5382 149.873 91.6869L157.096 95.9199C157.341 96.0631 157.636 96.0386 157.882 95.8952L157.895 95.8872C158.149 95.7448 158.305 95.4755 158.305 95.1835V89.4372C158.305 89.3426 158.381 89.2665 158.475 89.2665C158.569 89.2665 158.645 89.3426 158.645 89.4372V95.2229C158.645 95.4878 158.787 95.7333 159.016 95.8647L159.117 95.9224C159.346 96.0535 159.627 96.0527 159.854 95.9199L164.742 93.056C164.814 93.0131 164.907 93.0315 164.958 93.099L164.96 93.1016L164.966 93.1007ZM148.114 92.6977C148.114 92.4037 147.957 92.1327 147.704 91.9876L147.69 91.9798C147.432 91.832 147.114 91.8328 146.858 91.9832L139.64 96.2118C139.398 96.3542 139.27 96.6219 139.276 96.9044C139.276 96.9113 139.276 96.9182 139.276 96.9253C139.276 96.9322 139.276 96.9393 139.276 96.9462C139.27 97.2287 139.398 97.4962 139.64 97.6388L146.858 101.867C147.114 102.018 147.431 102.019 147.69 101.871L147.743 101.84C147.972 101.708 148.114 101.463 148.114 101.198V92.6977ZM157.291 96.9245V96.9036C157.294 96.6087 157.14 96.3358 156.886 96.1873L149.71 91.9823C149.453 91.832 149.137 91.8303 148.878 91.9788L148.864 91.9867C148.611 92.1327 148.454 92.4037 148.454 92.6967V101.196C148.454 101.477 148.619 101.722 148.864 101.86C148.869 101.863 148.874 101.866 148.878 101.868C149.123 102.012 149.419 102.036 149.663 101.893L156.886 97.6597C157.14 97.5119 157.295 97.2382 157.292 96.9437L157.291 96.9245ZM160.075 73.761L164.925 76.6027C164.999 76.6455 165.028 76.7373 164.994 76.8162L164.993 76.8197C164.953 76.9124 164.841 76.949 164.754 76.8983L159.859 74.0303C159.615 73.8869 159.32 73.9114 159.074 74.0547C159.07 74.0574 159.064 74.0599 159.06 74.0626C158.816 74.2008 158.65 74.4455 158.65 74.7271V80.491C158.65 80.5855 158.574 80.6617 158.48 80.6617C158.386 80.6617 158.31 80.5855 158.31 80.491V74.7726C158.31 74.4788 158.154 74.2078 157.901 74.0626L157.839 74.0276C157.61 73.8965 157.329 73.8973 157.102 74.0312L152.2 76.9034C152.126 76.9473 152.031 76.927 151.98 76.8582L151.978 76.8555C151.919 76.7741 151.942 76.6595 152.028 76.6089L156.926 73.7391C157.169 73.5965 157.296 73.3298 157.291 73.0475C157.291 73.0404 157.291 73.0334 157.291 73.0265C157.291 73.0195 157.291 73.0125 157.291 73.0055C157.296 72.7231 157.169 72.4556 156.926 72.313L149.709 68.0844C149.452 67.934 149.136 67.9323 148.877 68.0809L148.864 68.0879C148.61 68.2331 148.452 68.505 148.452 68.7988V74.5628C148.452 74.6572 148.377 74.7333 148.283 74.7333C148.189 74.7333 148.113 74.6572 148.113 74.5628V68.7682C148.113 68.4858 147.963 68.2173 147.711 68.0923C147.703 68.0888 147.696 68.0844 147.689 68.08C147.444 67.9366 147.149 67.9122 146.905 68.0556L139.681 72.2884C139.428 72.4372 139.274 72.7099 139.277 73.0046V73.0255V73.0466C139.274 73.3412 139.429 73.6141 139.681 73.7626L144.539 76.6089C144.625 76.6595 144.648 76.7741 144.589 76.8555L144.587 76.8582C144.537 76.927 144.442 76.9473 144.368 76.9034L139.513 74.0591C139.257 73.9087 138.94 73.907 138.681 74.0556L138.627 74.0862C138.398 74.2182 138.256 74.4631 138.256 74.7279V80.4919C138.256 80.5864 138.181 80.6625 138.087 80.6625C137.993 80.6625 137.917 80.5864 137.917 80.4919V74.7428C137.917 74.4604 137.767 74.1921 137.515 74.067C137.507 74.0634 137.5 74.0591 137.493 74.0547C137.248 73.9114 136.953 73.8869 136.709 74.0303L131.814 76.8983C131.727 76.949 131.615 76.9124 131.575 76.8197L131.574 76.8162C131.54 76.7373 131.569 76.6455 131.643 76.6027L136.493 73.761C136.746 73.6122 136.9 73.3396 136.898 73.0448V73.0239V73.0028C136.9 72.7082 136.746 72.4353 136.493 72.2868L131.652 69.4502C131.579 69.4074 131.548 69.3155 131.582 69.2377L131.584 69.2342C131.624 69.1416 131.736 69.104 131.823 69.1555L136.71 72.0182C136.954 72.1616 137.249 72.1372 137.494 71.9947C137.499 71.992 137.503 71.9895 137.508 71.986C137.752 71.8478 137.918 71.603 137.918 71.3215V62.8215C137.918 62.5285 137.761 62.2575 137.508 62.1123L137.446 62.0774C137.217 61.9462 136.936 61.9471 136.709 62.0808L131.783 64.9663C131.701 65.0144 131.595 64.9847 131.55 64.8999L131.548 64.8973C131.506 64.8168 131.534 64.718 131.612 64.6717L136.533 61.7888C136.762 61.6542 136.914 61.4067 136.899 61.1409C136.892 61.0106 136.906 60.8751 136.947 60.736C137.068 60.3198 137.421 59.9911 137.844 59.9054C138.153 59.8433 138.443 59.9027 138.681 60.0435C138.926 60.1887 139.222 60.2132 139.467 60.0698L146.69 55.8377C146.944 55.6891 147.098 55.4163 147.095 55.1216V55.1006C147.095 54.3338 147.814 53.7366 148.611 53.949C148.949 54.0391 149.233 54.2901 149.372 54.6127C149.453 54.8042 149.483 54.9922 149.472 55.1697C149.457 55.4346 149.612 55.6803 149.84 55.8141L157.107 60.0724C157.349 60.2149 157.644 60.1896 157.886 60.0453C158.107 59.9133 158.374 59.8521 158.66 59.894C159.074 59.9552 159.497 60.3225 159.619 60.7238C159.662 60.8681 159.678 61.0089 159.67 61.1435C159.655 61.4085 159.809 61.655 160.038 61.7888L164.958 64.6717C165.036 64.7172 165.064 64.8168 165.021 64.8973C165.021 64.8981 165.02 64.899 165.019 64.8999C164.974 64.9847 164.869 65.0144 164.786 64.9663L159.908 62.108C159.651 61.9576 159.334 61.9558 159.076 62.1045L159.023 62.1351C158.793 62.2671 158.652 62.5119 158.652 62.7777V71.3231C158.652 71.6047 158.817 71.8496 159.062 71.9876C159.067 71.9903 159.071 71.993 159.076 71.9965C159.32 72.139 159.615 72.1635 159.86 72.0201L164.746 69.1573C164.833 69.1066 164.945 69.1433 164.985 69.2369L164.987 69.2403C165.021 69.3191 164.991 69.41 164.918 69.4528L160.077 72.2893C159.824 72.4372 159.669 72.7109 159.672 73.0055V73.0265V73.0475C159.67 73.3421 159.824 73.6149 160.077 73.7636L160.075 73.761ZM147.094 67.0491C147.094 67.0421 147.094 67.0351 147.094 67.0282C147.1 66.7457 146.973 66.4782 146.73 66.3356L139.512 62.1071C139.256 61.9567 138.939 61.955 138.68 62.1036L138.665 62.1115C138.412 62.2575 138.256 62.5285 138.256 62.8215V71.3215C138.256 71.5863 138.397 71.8321 138.626 71.9632L138.68 71.9938C138.938 72.1424 139.256 72.1407 139.512 71.9903L146.73 67.7609C146.973 67.6184 147.1 67.3517 147.094 67.0692C147.094 67.0622 147.094 67.0561 147.094 67.0491ZM148.114 56.8477C148.114 56.5538 147.957 56.2828 147.704 56.1377L147.69 56.1298C147.432 55.9811 147.114 55.9829 146.858 56.1333L139.682 60.3382C139.429 60.4869 139.275 60.7597 139.277 61.0543V61.0753V61.0963C139.275 61.391 139.43 61.6638 139.682 61.8124L146.905 66.0453C147.15 66.1887 147.445 66.1643 147.69 66.0217C147.694 66.0191 147.7 66.0165 147.704 66.013C147.948 65.8748 148.114 65.63 148.114 65.3485V56.8477ZM149.662 66.0436L156.886 61.8107C157.139 61.662 157.293 61.3892 157.29 61.0946V61.0736V61.0526C157.293 60.7579 157.138 60.4851 156.886 60.3365L149.709 56.1315C149.452 55.9811 149.136 55.9794 148.877 56.128L148.824 56.1586C148.595 56.2907 148.453 56.5355 148.453 56.8004V65.3458C148.453 65.6274 148.619 65.8722 148.863 66.0104C148.868 66.013 148.873 66.0156 148.877 66.0191C149.122 66.1616 149.418 66.187 149.662 66.0436ZM158.31 62.7769C158.31 62.511 158.169 62.2662 157.94 62.1342L157.887 62.1036C157.629 61.955 157.311 61.9567 157.054 62.1071L149.878 66.312C149.625 66.4598 149.471 66.7335 149.473 67.0282V67.0491V67.0701C149.471 67.3648 149.626 67.6376 149.878 67.7862L157.102 72.0191C157.346 72.1626 157.641 72.138 157.886 71.9955C157.89 71.993 157.895 71.9903 157.9 71.9868C158.144 71.8486 158.31 71.6039 158.31 71.3223L158.31 62.7769Z" fill="white"/>
</g>
<g clip-path="url(#clip1_7_342)">
<path d="M297.087 41H240.913C235.438 41 231 45.4382 231 50.913V107.087C231 112.562 235.438 117 240.913 117H297.087C302.562 117 307 112.562 307 107.087V50.913C307 45.4382 302.562 41 297.087 41Z" fill="white"/>
<g clip-path="url(#clip2_7_342)">
<path d="M269 87.4375C273.66 87.4375 277.438 83.6599 277.438 79C277.438 74.3401 273.66 70.5625 269 70.5625C264.34 70.5625 260.562 74.3401 260.562 79C260.562 83.6599 264.34 87.4375 269 87.4375Z" stroke="#5B52FF" stroke-width="3.375" stroke-linecap="round" stroke-linejoin="round"/>
<path d="M269.432 95.4763C269.15 95.4763 268.865 95.4763 268.589 95.4763L261.828 99.25C259.196 98.3647 256.755 96.9907 254.633 95.2L254.608 87.6063C254.458 87.37 254.317 87.1316 254.186 86.887L247.463 83.0584C246.934 80.3801 246.934 77.6241 247.463 74.9458L254.179 71.1278C254.317 70.8852 254.458 70.6448 254.601 70.4085L254.635 62.8148C256.755 61.0189 259.196 59.6398 261.828 58.75L268.578 62.5237C268.861 62.5237 269.145 62.5237 269.422 62.5237L276.172 58.75C278.804 59.6353 281.245 61.0093 283.367 62.8L283.392 70.3937C283.542 70.63 283.683 70.8684 283.814 71.113L290.532 74.9395C291.062 77.6178 291.062 80.3738 290.532 83.0521L283.816 86.8701C283.679 87.1127 283.538 87.3531 283.394 87.5894L283.361 95.1831C281.242 96.9792 278.803 98.3591 276.172 99.25L269.432 95.4763Z" stroke="#5B52FF" stroke-width="3.375" stroke-linecap="round" stroke-linejoin="round"/>
</g>
</g>
<rect x="231.5" y="41.5" width="75" height="75" rx="37.5" stroke="#5B52FF" stroke-opacity="0.2"/>
<path d="M227.354 79.8536C227.549 79.6583 227.549 79.3417 227.354 79.1464L224.172 75.9645C223.976 75.7692 223.66 75.7692 223.464 75.9645C223.269 76.1597 223.269 76.4763 223.464 76.6716L226.293 79.5L223.464 82.3284C223.269 82.5237 223.269 82.8403 223.464 83.0355C223.66 83.2308 223.976 83.2308 224.172 83.0355L227.354 79.8536ZM191 79.5V80H227V79.5V79H191V79.5Z" fill="#5B52FF" fill-opacity="0.5"/>
<defs>
<clipPath id="clip0_7_342">
<rect x="111" y="41" width="76" height="76" rx="38" fill="white"/>
</clipPath>
<clipPath id="clip1_7_342">
<rect x="231" y="41" width="76" height="76" rx="38" fill="white"/>
</clipPath>
<clipPath id="clip2_7_342">
<rect width="54" height="54" fill="white" transform="translate(242 52)"/>
</clipPath>
</defs>
</svg>
