<svg width="418" height="159" viewBox="0 0 418 159" fill="none" xmlns="http://www.w3.org/2000/svg">
<g clip-path="url(#clip0_1_7)">
<path d="M0 12C0 5.37258 5.37258 0 12 0H406C412.627 0 418 5.37258 418 12V159H0V12Z" fill="#F2F4F9"/>
<g clip-path="url(#clip1_1_7)">
<path d="M97.087 26H57.913C54.0951 26 51 29.0951 51 32.913V72.087C51 75.9049 54.0951 79 57.913 79H97.087C100.905 79 104 75.9049 104 72.087V32.913C104 29.0951 100.905 26 97.087 26Z" fill="white"/>
<path d="M57.9131 26.5H97.0869C100.629 26.5 103.5 29.3713 103.5 32.9131V72.0869C103.5 75.6287 100.629 78.5 97.0869 78.5H57.9131C54.3713 78.5 51.5 75.6287 51.5 72.0869V32.9131C51.5 29.3713 54.3713 26.5 57.9131 26.5Z" stroke="#5B52FF" stroke-opacity="0.2"/>
<path d="M92.2045 62.3236C91.3729 62.8877 90.3014 62.6102 89.7721 61.8699C88.6951 60.3632 86.6968 58.5588 84.0463 58.4528C83.5133 58.4315 83.0114 58.165 82.6908 57.7411C79.1366 53.0428 74.6845 53.2802 71.3093 57.7411C70.9887 58.165 70.4867 58.4315 69.9537 58.4528C67.3034 58.5588 65.308 60.359 64.2281 61.8699C63.6987 62.6102 62.6273 62.8883 61.7956 62.3236C61.007 61.7881 60.8164 60.8157 61.1716 60.062C61.3336 59.7186 62.8276 56.6808 61.1807 53.2893C60.9427 52.7995 60.9403 52.2174 61.1734 51.7252C61.3336 51.3873 62.8306 48.3604 61.1782 44.9604C60.6829 43.9408 61.2578 42.5378 62.5745 42.3908C64.1097 42.2201 64.9274 43.8134 64.3847 44.9506C63.9033 45.9598 62.9083 48.6819 64.375 51.7105C64.5917 52.1582 64.6117 52.6832 64.4357 53.1447C64.1018 54.021 62.9193 57.8668 64.0872 58.5407C65.2285 59.1992 67.8212 56.3961 68.498 55.5516C68.8052 55.1673 69.2647 54.9217 69.7558 54.8826C70.8643 54.7947 73.667 54.2917 75.5216 51.5057C76.2252 50.4489 77.7743 50.4489 78.4779 51.5057C80.3325 54.2917 83.1351 54.7947 84.2437 54.8826C84.7347 54.9217 85.1937 55.1673 85.5015 55.5516C86.0497 56.2363 88.7741 59.1974 89.9123 58.5407C91.0378 57.8912 89.993 54.2716 89.5639 53.1447C89.3878 52.6824 89.4084 52.1582 89.6245 51.7105C91.0912 48.6819 90.0962 45.9598 89.6148 44.9506C89.0721 43.8128 89.8904 42.2201 91.4251 42.3908C92.7417 42.5371 93.3166 43.9402 92.8212 44.9604C91.1695 48.3599 92.6664 51.3867 92.8262 51.7252C93.0586 52.2167 93.0561 52.7995 92.8189 53.2893C91.1713 56.6808 92.6659 59.7186 92.8279 60.062C93.1836 60.8157 92.9937 61.7881 92.2045 62.3236ZM88.6344 62.3334C88.6775 62.3901 88.6618 62.4718 88.6004 62.5078L85.1961 64.5024C85.0359 64.5963 84.9302 64.7688 84.94 64.9548C84.9448 65.045 84.9351 65.1395 84.9065 65.2365C84.8221 65.5267 84.5763 65.756 84.2807 65.8158C84.0651 65.8591 83.8631 65.8176 83.6973 65.7194C83.5267 65.6189 83.3204 65.6011 83.149 65.7011L78.1119 68.6524C77.9352 68.756 77.8272 68.9464 77.8289 69.1518V69.1664C77.8289 69.6701 77.3835 70.0702 76.8668 69.9897C76.5542 69.9408 76.2882 69.7031 76.2021 69.397C76.1754 69.3025 76.1662 69.2105 76.171 69.1225C76.1802 68.9567 76.0577 68.7531 75.9155 68.6696L70.8516 65.7023C70.6804 65.6018 70.4734 65.6195 70.3022 65.7207C70.1358 65.8188 69.9319 65.861 69.7158 65.8158C69.4177 65.7542 69.1822 65.5359 69.0948 65.2426C69.0656 65.1438 69.0553 65.0481 69.0601 64.9561C69.0705 64.7701 68.9648 64.5963 68.8046 64.5024L65.3997 62.5072C65.339 62.4712 65.3226 62.3901 65.3657 62.3334C65.3657 62.3328 65.3669 62.3322 65.3669 62.3315C65.4027 62.2845 65.4683 62.2717 65.5192 62.3016L68.9272 64.2987C69.0978 64.3987 69.3036 64.3816 69.4741 64.2822C69.4772 64.2804 69.4808 64.2785 69.4839 64.276C69.6545 64.1798 69.7698 64.009 69.7698 63.8127V59.7778C69.7698 59.712 69.8226 59.659 69.8882 59.659C69.9537 59.659 70.0065 59.712 70.0065 59.7778V63.8127C70.0065 64.009 70.1219 64.1798 70.2925 64.276C70.2961 64.2779 70.2991 64.2797 70.3022 64.2822C70.4728 64.3816 70.6785 64.3987 70.8491 64.2987L75.8863 61.3467C76.063 61.2432 76.1705 61.0528 76.1687 60.8474V60.8326V60.818C76.1705 60.6127 76.0624 60.4224 75.8863 60.3187L72.5143 58.343C72.4523 58.3071 72.4372 58.2241 72.4815 58.168C72.4815 58.1674 72.4827 58.1668 72.4827 58.1662C72.5191 58.1204 72.5835 58.1083 72.6338 58.1376L76.0363 60.1315C76.2069 60.2315 76.4128 60.2144 76.5832 60.1151C76.5863 60.1132 76.59 60.1113 76.5931 60.1089C76.7637 60.0126 76.879 59.8418 76.879 59.6455V55.6204C76.879 55.5546 76.9317 55.5015 76.9973 55.5015C77.0629 55.5015 77.1158 55.5546 77.1158 55.6204V59.6461C77.1158 59.8424 77.231 60.0132 77.4016 60.1096C77.4053 60.1113 77.4083 60.1132 77.4113 60.1157C77.5819 60.215 77.7877 60.2321 77.9583 60.132L81.3608 58.1382C81.4112 58.1089 81.4755 58.1212 81.5119 58.1668C81.5119 58.1674 81.5131 58.168 81.5131 58.1685C81.5574 58.2247 81.5417 58.3077 81.4804 58.3435L78.1082 60.3193C77.9315 60.4224 77.8241 60.6133 77.826 60.8186V60.8334V60.8479C77.8241 61.0534 77.9323 61.2437 78.1088 61.3474L83.1461 64.2994C83.3167 64.3993 83.5224 64.3822 83.6938 64.2822L83.7033 64.2766C83.88 64.1773 83.9894 63.9895 83.9894 63.7859V59.7785C83.9894 59.7126 84.0422 59.6595 84.1077 59.6595C84.1733 59.6595 84.226 59.7126 84.226 59.7785V63.8133C84.226 63.9981 84.325 64.1693 84.4847 64.2609L84.555 64.3011C84.7147 64.3926 84.9108 64.392 85.0692 64.2994L88.4779 62.3022C88.5283 62.2723 88.5932 62.2851 88.6289 62.3322L88.6302 62.334L88.6344 62.3334ZM76.882 62.0524C76.882 61.8473 76.7727 61.6583 76.596 61.5571L76.5863 61.5517C76.4067 61.4486 76.1851 61.4492 76.006 61.5541L70.973 64.503C70.8036 64.6023 70.715 64.7889 70.7186 64.986C70.7186 64.9908 70.7186 64.9956 70.7186 65.0005C70.7186 65.0054 70.7186 65.0103 70.7186 65.0151C70.715 65.2122 70.8036 65.3987 70.973 65.4981L76.006 68.4469C76.1851 68.5519 76.4061 68.5531 76.5863 68.4494L76.6233 68.4281C76.783 68.336 76.882 68.1651 76.882 67.9805V62.0524ZM83.282 65V64.9854C83.2839 64.7798 83.1765 64.5894 82.9998 64.4859L77.9953 61.5535C77.8161 61.4486 77.5953 61.4475 77.415 61.551L77.4053 61.5565C77.2286 61.6583 77.1192 61.8473 77.1192 62.0517V67.9786C77.1192 68.175 77.2347 68.3457 77.4053 68.4421C77.4089 68.444 77.4119 68.4457 77.415 68.4475C77.5856 68.5475 77.7919 68.5647 77.9625 68.4647L82.9998 65.5127C83.1765 65.4096 83.2845 65.2187 83.2826 65.0134L83.282 65ZM85.2234 48.8465L88.6054 50.8282C88.6569 50.8581 88.6775 50.9221 88.6538 50.9771L88.6527 50.9795C88.6248 51.0441 88.547 51.0697 88.4863 51.0344L85.0729 49.0343C84.9023 48.9343 84.6966 48.9514 84.5254 49.0513C84.5223 49.0532 84.5186 49.055 84.5155 49.0568C84.3451 49.1532 84.2298 49.3239 84.2298 49.5202V53.5398C84.2298 53.6057 84.1769 53.6588 84.1113 53.6588C84.0457 53.6588 83.9928 53.6057 83.9928 53.5398V49.552C83.9928 49.3471 83.8837 49.1581 83.7071 49.0568L83.664 49.0324C83.5043 48.941 83.3082 48.9416 83.1498 49.0349L79.7314 51.0379C79.6799 51.0685 79.6136 51.0544 79.5779 51.0064L79.5766 51.0045C79.5354 50.9478 79.5518 50.8678 79.6118 50.8325L83.0277 48.8312C83.1971 48.7318 83.2857 48.5458 83.282 48.3489C83.282 48.344 83.282 48.3391 83.282 48.3343C83.282 48.3294 83.282 48.3245 83.282 48.3196C83.2857 48.1227 83.1971 47.9361 83.0277 47.8367L77.9947 44.8878C77.8155 44.7829 77.5947 44.7817 77.4143 44.8854L77.4053 44.8903C77.228 44.9915 77.1181 45.1811 77.1181 45.386V49.4057C77.1181 49.4715 77.0652 49.5245 76.9998 49.5245C76.9341 49.5245 76.8813 49.4715 76.8813 49.4057V45.3647C76.8813 45.1677 76.777 44.9805 76.6009 44.8933C76.5954 44.8909 76.5906 44.8878 76.5857 44.8848C76.4152 44.7848 76.2094 44.7677 76.0388 44.8677L71.0015 47.8196C70.8248 47.9233 70.7174 48.1135 70.7192 48.319V48.3336V48.3483C70.7174 48.5538 70.8255 48.744 71.0015 48.8476L74.3888 50.8325C74.4489 50.8678 74.4653 50.9478 74.424 51.0045L74.4228 51.0064C74.3876 51.0544 74.3214 51.0685 74.2698 51.0379L70.8843 49.0544C70.7053 48.9495 70.4843 48.9483 70.304 49.0519L70.2664 49.0733C70.1067 49.1653 70.0078 49.3361 70.0078 49.5208V53.5404C70.0078 53.6063 69.9549 53.6594 69.8894 53.6594C69.8238 53.6594 69.771 53.6063 69.771 53.5404V49.5312C69.771 49.3343 69.6666 49.1471 69.4906 49.0599C69.4851 49.0574 69.4802 49.0544 69.4754 49.0513C69.3048 48.9514 69.099 48.9343 68.9284 49.0343L65.515 51.0344C65.4543 51.0697 65.3766 51.0441 65.3486 50.9795L65.3474 50.9771C65.3238 50.9221 65.3444 50.8581 65.396 50.8282L68.7779 48.8465C68.9545 48.7428 69.062 48.5526 69.0601 48.347V48.3324V48.3177C69.062 48.1123 68.9545 47.922 68.7779 47.8184L65.4021 45.8403C65.3511 45.8104 65.3298 45.7464 65.3535 45.6921L65.3547 45.6897C65.3827 45.625 65.4604 45.5988 65.5217 45.6348L68.929 47.6312C69.0996 47.7311 69.3054 47.7141 69.476 47.6147C69.4796 47.6128 69.4827 47.6111 69.4857 47.6086C69.6563 47.5123 69.7716 47.3416 69.7716 47.1452V41.2176C69.7716 41.0133 69.6624 40.8243 69.4857 40.7231L69.4426 40.6987C69.2829 40.6072 69.0869 40.6078 68.9284 40.7011L65.4937 42.7134C65.4361 42.7469 65.3626 42.7262 65.3311 42.667L65.3298 42.6652C65.3001 42.6091 65.3195 42.5402 65.3742 42.5079L68.8058 40.4975C68.9655 40.4036 69.0717 40.231 69.0614 40.0456C69.0565 39.9548 69.0662 39.8602 69.0948 39.7633C69.1791 39.473 69.425 39.2438 69.72 39.184C69.9355 39.1407 70.1377 39.1822 70.304 39.2804C70.4746 39.3816 70.681 39.3987 70.8522 39.2987L75.8894 36.3474C76.0661 36.2437 76.1735 36.0535 76.1718 35.848V35.8333C76.1718 35.2986 76.6727 34.8821 77.2286 35.0303C77.4642 35.0931 77.6627 35.2681 77.7592 35.4931C77.8161 35.6266 77.8369 35.7577 77.8295 35.8815C77.8186 36.0663 77.9268 36.2376 78.0857 36.3309L83.1534 39.3005C83.3227 39.3999 83.528 39.3822 83.6967 39.2816C83.8509 39.1895 84.0373 39.1468 84.2369 39.1761C84.5254 39.2188 84.8204 39.4749 84.9053 39.7548C84.9357 39.8554 84.9466 39.9536 84.9412 40.0475C84.9302 40.2322 85.0382 40.4042 85.1973 40.4975L88.6283 42.5079C88.6829 42.5396 88.7025 42.6091 88.6727 42.6652C88.6727 42.6658 88.672 42.6664 88.6714 42.667C88.6399 42.7262 88.5664 42.7469 88.5087 42.7134L85.1068 40.72C84.9278 40.6152 84.7069 40.6139 84.5265 40.7176L84.4895 40.7389C84.3292 40.831 84.2309 41.0017 84.2309 41.1871V47.1464C84.2309 47.3428 84.3462 47.5136 84.5168 47.6098C84.5204 47.6117 84.5235 47.6135 84.5265 47.616C84.6971 47.7154 84.9029 47.7324 85.0736 47.6324L88.4808 45.636C88.5416 45.6006 88.6199 45.6263 88.6477 45.6915L88.6491 45.6939C88.6727 45.7488 88.6515 45.8122 88.6004 45.8421L85.2246 47.8202C85.048 47.9233 84.94 48.1142 84.9424 48.3196V48.3343V48.3489C84.9406 48.5543 85.0486 48.7446 85.2246 48.8483L85.2234 48.8465ZM76.171 44.1658C76.171 44.161 76.171 44.1561 76.171 44.1512C76.1748 43.9543 76.0861 43.7677 75.9168 43.6683L70.8837 40.7194C70.7046 40.6145 70.4837 40.6133 70.3034 40.717L70.2931 40.7225C70.1164 40.8243 70.0071 41.0133 70.0071 41.2176V47.1452C70.0071 47.3299 70.1061 47.5013 70.2658 47.5928L70.3034 47.6141C70.4831 47.7177 70.7046 47.7166 70.8837 47.6117L75.9168 44.6622C76.0861 44.5628 76.1748 44.3768 76.171 44.1799C76.171 44.175 76.171 44.1707 76.171 44.1658ZM76.882 37.0517C76.882 36.8468 76.7727 36.6577 76.596 36.5565L76.5863 36.551C76.4067 36.4474 76.1851 36.4486 76.0065 36.5535L71.0021 39.4859C70.8255 39.5895 70.718 39.7798 70.7198 39.9853V39.9999V40.0145C70.718 40.22 70.826 40.4103 71.0021 40.5139L76.0394 43.4658C76.2099 43.5658 76.4158 43.5488 76.5863 43.4494C76.5895 43.4475 76.5931 43.4457 76.596 43.4433C76.7667 43.3469 76.882 43.1762 76.882 42.9799V37.0517ZM77.9619 43.4646L82.9992 40.5127C83.1757 40.409 83.2832 40.2188 83.2814 40.0133V39.9987V39.984C83.2832 39.7786 83.1752 39.5883 82.9992 39.4846L77.9947 36.5523C77.8155 36.4474 77.5947 36.4461 77.4143 36.5498L77.3774 36.5712C77.2177 36.6632 77.1187 36.834 77.1187 37.0187V42.978C77.1187 43.1744 77.2341 43.3451 77.4047 43.4414C77.4083 43.4433 77.4113 43.4451 77.4143 43.4475C77.585 43.5469 77.7914 43.5646 77.9619 43.4646ZM83.9928 41.1865C83.9928 41.0011 83.894 40.8304 83.7344 40.7383L83.6973 40.717C83.5177 40.6133 83.296 40.6145 83.1169 40.7194L78.1124 43.6518C77.9358 43.7549 77.8283 43.9457 77.8302 44.1512V44.1658V44.1805C77.8283 44.386 77.9363 44.5762 78.1124 44.6799L83.1498 47.6317C83.3204 47.7318 83.5261 47.7147 83.6967 47.6153C83.6997 47.6135 83.7033 47.6117 83.7064 47.6092C83.877 47.5129 83.9923 47.3422 83.9923 47.1458L83.9928 41.1865Z" fill="#5B52FF"/>
</g>
<path d="M104 52H148" stroke="url(#paint0_linear_1_7)" stroke-width="2"/>
<rect x="148" y="26" width="291" height="169" rx="15" fill="white"/>
<rect x="148.5" y="26.5" width="290" height="168" rx="14.5" stroke="#5B52FF" stroke-opacity="0.2"/>
<rect x="165" y="44" width="133" height="59" rx="10" fill="#F2F4F9"/>
<rect x="165" y="111" width="182" height="59" rx="10" fill="#F2F4F9"/>
<rect x="355" y="111" width="182" height="59" rx="10" fill="#F2F4F9"/>
<rect x="306" y="44" width="133" height="59" rx="10" fill="#F2F4F9"/>
</g>
<defs>
<linearGradient id="paint0_linear_1_7" x1="104" y1="52.5" x2="148" y2="52.5" gradientUnits="userSpaceOnUse">
<stop stop-color="#5B52FF"/>
<stop offset="1" stop-color="#5B52FF" stop-opacity="0"/>
</linearGradient>
<clipPath id="clip0_1_7">
<path d="M0 12C0 5.37258 5.37258 0 12 0H406C412.627 0 418 5.37258 418 12V159H0V12Z" fill="white"/>
</clipPath>
<clipPath id="clip1_1_7">
<rect x="51" y="26" width="53" height="53" rx="26.5" fill="white"/>
</clipPath>
</defs>
</svg>
