<svg width="418" height="159" viewBox="0 0 418 159" fill="none" xmlns="http://www.w3.org/2000/svg">
<g clip-path="url(#clip0_1_23)">
<path d="M0 12C0 5.37258 5.37258 0 12 0H406C412.627 0 418 5.37258 418 12V159H0V12Z" fill="#F2F4F9"/>
<g clip-path="url(#clip1_1_23)">
<path d="M226.739 15H191.261C187.803 15 185 17.8031 185 21.2609V56.7391C185 60.1969 187.803 63 191.261 63H226.739C230.197 63 233 60.1969 233 56.7391V21.2609C233 17.8031 230.197 15 226.739 15Z" fill="white"/>
<path d="M222.317 47.8969C221.564 48.4077 220.594 48.1564 220.114 47.486C219.139 46.1214 217.329 44.4872 214.929 44.3912C214.446 44.3719 213.991 44.1306 213.701 43.7467C210.482 39.4916 206.45 39.7066 203.393 43.7467C203.103 44.1306 202.648 44.3719 202.166 44.3912C199.765 44.4872 197.958 46.1175 196.98 47.486C196.501 48.1564 195.53 48.4083 194.777 47.8969C194.063 47.4119 193.89 46.5312 194.212 45.8486C194.359 45.5376 195.712 42.7863 194.22 39.7148C194.005 39.2713 194.002 38.744 194.214 38.2983C194.359 37.9923 195.715 35.251 194.218 32.1717C193.769 31.2483 194.29 29.9776 195.482 29.8445C196.873 29.6899 197.613 31.1329 197.122 32.1628C196.686 33.0768 195.785 35.5421 197.113 38.2849C197.309 38.6904 197.328 39.1659 197.168 39.5839C196.866 40.3775 195.795 43.8605 196.853 44.4708C197.886 45.0672 200.234 42.5285 200.847 41.7637C201.125 41.4157 201.542 41.1932 201.986 41.1578C202.99 41.0782 205.529 40.6227 207.208 38.0995C207.845 37.1424 209.248 37.1424 209.886 38.0995C211.565 40.6227 214.103 41.0782 215.107 41.1578C215.552 41.1932 215.968 41.4157 216.247 41.7637C216.743 42.3838 219.21 45.0656 220.241 44.4708C221.261 43.8826 220.314 40.6045 219.926 39.5839C219.766 39.1652 219.785 38.6904 219.981 38.2849C221.309 35.5421 220.408 33.0768 219.972 32.1628C219.48 31.1323 220.221 29.6899 221.611 29.8445C222.804 29.977 223.324 31.2478 222.876 32.1717C221.38 35.2504 222.736 37.9917 222.88 38.2983C223.091 38.7434 223.089 39.2713 222.874 39.7148C221.382 42.7863 222.735 45.5376 222.882 45.8486C223.204 46.5312 223.032 47.4119 222.317 47.8969ZM219.084 47.9057C219.123 47.9571 219.109 48.0311 219.053 48.0637L215.97 49.8701C215.825 49.9551 215.729 50.1114 215.738 50.2798C215.742 50.3615 215.734 50.4471 215.708 50.5349C215.631 50.7978 215.409 51.0054 215.141 51.0595C214.946 51.0988 214.763 51.0613 214.613 50.9722C214.458 50.8812 214.271 50.8651 214.116 50.9557L209.554 53.6285C209.394 53.7225 209.296 53.8948 209.298 54.0809V54.0941C209.298 54.5503 208.894 54.9126 208.426 54.8397C208.143 54.7954 207.902 54.5802 207.825 54.3029C207.8 54.2173 207.792 54.134 207.796 54.0544C207.805 53.9042 207.694 53.7198 207.565 53.6441L202.979 50.9568C202.824 50.8658 202.636 50.8818 202.481 50.9734C202.331 51.0623 202.146 51.1005 201.95 51.0595C201.68 51.0038 201.467 50.8061 201.388 50.5405C201.361 50.4509 201.352 50.3643 201.356 50.281C201.366 50.1126 201.27 49.9551 201.125 49.8701L198.041 48.0632C197.986 48.0305 197.971 47.9571 198.01 47.9057C198.01 47.9052 198.011 47.9047 198.011 47.904C198.044 47.8615 198.103 47.8498 198.149 47.8769L201.236 49.6856C201.39 49.7762 201.577 49.7607 201.731 49.6706C201.734 49.6691 201.737 49.6673 201.74 49.6651C201.895 49.5779 201.999 49.4233 201.999 49.2455V45.5912C201.999 45.5317 202.047 45.4836 202.106 45.4836C202.166 45.4836 202.213 45.5317 202.213 45.5912V49.2455C202.213 49.4233 202.318 49.5779 202.472 49.6651C202.476 49.6668 202.478 49.6684 202.481 49.6706C202.636 49.7607 202.822 49.7762 202.977 49.6856L207.539 47.0121C207.699 46.9183 207.796 46.746 207.794 46.5599V46.5465V46.5333C207.796 46.3474 207.698 46.175 207.539 46.0811L204.485 44.2917C204.429 44.2592 204.415 44.1841 204.455 44.1332C204.455 44.1327 204.456 44.1322 204.456 44.1317C204.489 44.0902 204.547 44.0792 204.593 44.1058L207.674 45.9115C207.829 46.0021 208.015 45.9867 208.17 45.8967C208.172 45.895 208.176 45.8933 208.179 45.891C208.333 45.8039 208.438 45.6492 208.438 45.4714V41.826C208.438 41.7665 208.485 41.7184 208.545 41.7184C208.604 41.7184 208.652 41.7665 208.652 41.826V45.472C208.652 45.6497 208.756 45.8044 208.911 45.8917C208.914 45.8933 208.917 45.895 208.92 45.8972C209.074 45.9872 209.261 46.0026 209.415 45.912L212.497 44.1063C212.542 44.0798 212.6 44.0908 212.633 44.1322C212.633 44.1327 212.634 44.1332 212.634 44.1338C212.675 44.1846 212.66 44.2598 212.605 44.2923L209.551 46.0816C209.391 46.175 209.294 46.3479 209.295 46.5338V46.5472V46.5604C209.294 46.7465 209.391 46.9188 209.551 47.0128L214.113 49.6862C214.268 49.7767 214.454 49.7612 214.609 49.6706L214.618 49.6656C214.778 49.5757 214.877 49.4056 214.877 49.2212V45.5919C214.877 45.5322 214.925 45.4841 214.984 45.4841C215.044 45.4841 215.091 45.5322 215.091 45.5919V49.246C215.091 49.4134 215.181 49.5684 215.326 49.6514L215.389 49.6878C215.534 49.7706 215.712 49.7701 215.855 49.6862L218.942 47.8775C218.988 47.8504 219.047 47.862 219.079 47.9047L219.08 47.9062L219.084 47.9057ZM208.44 47.6512C208.44 47.4655 208.341 47.2943 208.181 47.2027L208.172 47.1978C208.01 47.1044 207.809 47.1049 207.647 47.1999L203.089 49.8706C202.935 49.9605 202.855 50.1296 202.858 50.308C202.858 50.3124 202.858 50.3168 202.858 50.3212C202.858 50.3256 202.858 50.3301 202.858 50.3345C202.855 50.5129 202.935 50.6818 203.089 50.7719L207.647 53.4425C207.809 53.5375 208.009 53.5386 208.172 53.4447L208.206 53.4254C208.351 53.3421 208.44 53.1873 208.44 53.0201V47.6512ZM214.237 50.3207V50.3075C214.238 50.1213 214.141 49.9489 213.981 49.8552L209.449 47.1994C209.286 47.1044 209.086 47.1034 208.923 47.1971L208.914 47.2022C208.754 47.2943 208.655 47.4655 208.655 47.6505V53.0184C208.655 53.1963 208.76 53.3508 208.914 53.4381C208.917 53.4398 208.92 53.4414 208.923 53.443C209.077 53.5336 209.264 53.5492 209.419 53.4586L213.981 50.7851C214.141 50.6917 214.239 50.5188 214.237 50.3329L214.237 50.3207ZM215.995 35.6911L219.058 37.4859C219.104 37.513 219.123 37.5709 219.102 37.6207L219.101 37.623C219.075 37.6815 219.005 37.7046 218.95 37.6726L215.858 35.8613C215.704 35.7707 215.518 35.7861 215.363 35.8767C215.36 35.8784 215.356 35.88 215.354 35.8816C215.199 35.9689 215.095 36.1235 215.095 36.3013V39.9417C215.095 40.0014 215.047 40.0495 214.988 40.0495C214.928 40.0495 214.88 40.0014 214.88 39.9417V36.3301C214.88 36.1445 214.781 35.9734 214.622 35.8816L214.582 35.8596C214.438 35.7767 214.26 35.7773 214.117 35.8618L211.021 37.6758C210.974 37.7035 210.914 37.6907 210.882 37.6473L210.881 37.6456C210.843 37.5942 210.858 37.5218 210.913 37.4898L214.006 35.6773C214.16 35.5873 214.24 35.4189 214.237 35.2405C214.237 35.2361 214.237 35.2316 214.237 35.2273C214.237 35.2229 214.237 35.2184 214.237 35.214C214.24 35.0356 214.16 34.8667 214.006 34.7766L209.448 32.1059C209.286 32.011 209.086 32.0099 208.922 32.1037L208.914 32.1082C208.754 32.1998 208.654 32.3716 208.654 32.5571V36.1976C208.654 36.2572 208.606 36.3052 208.547 36.3052C208.487 36.3052 208.44 36.2572 208.44 36.1976V32.5378C208.44 32.3594 208.345 32.1899 208.186 32.1109C208.181 32.1087 208.176 32.1059 208.172 32.1032C208.018 32.0126 207.831 31.9972 207.677 32.0877L203.115 34.7611C202.955 34.855 202.857 35.0273 202.859 35.2134V35.2267V35.24C202.857 35.426 202.955 35.5984 203.115 35.6922L206.182 37.4898C206.237 37.5218 206.252 37.5942 206.214 37.6456L206.213 37.6473C206.181 37.6907 206.121 37.7035 206.075 37.6758L203.008 35.8794C202.846 35.7844 202.646 35.7834 202.483 35.8772L202.449 35.8965C202.304 35.9799 202.215 36.1346 202.215 36.3019V39.9422C202.215 40.0019 202.167 40.05 202.107 40.05C202.048 40.05 202 40.0019 202 39.9422V36.3113C202 36.1329 201.906 35.9634 201.746 35.8844C201.741 35.8822 201.737 35.8794 201.732 35.8767C201.578 35.7861 201.392 35.7707 201.237 35.8613L198.146 37.6726C198.091 37.7046 198.02 37.6815 197.995 37.623L197.994 37.6207C197.972 37.5709 197.991 37.513 198.038 37.4859L201.101 35.6911C201.261 35.5972 201.358 35.425 201.356 35.2388V35.2256V35.2123C201.358 35.0262 201.261 34.8539 201.101 34.7601L198.043 32.9686C197.997 32.9415 197.978 32.8835 197.999 32.8344L198 32.8322C198.026 32.7736 198.096 32.7499 198.152 32.7824L201.238 34.5905C201.392 34.681 201.578 34.6656 201.733 34.5756C201.736 34.5739 201.739 34.5723 201.742 34.5701C201.896 34.4828 202.001 34.3282 202.001 34.1504V28.782C202.001 28.597 201.902 28.4258 201.742 28.3341L201.703 28.312C201.558 28.2292 201.381 28.2297 201.237 28.3142L198.126 30.1366C198.074 30.167 198.008 30.1482 197.979 30.0947L197.978 30.093C197.951 30.0422 197.969 29.9798 198.018 29.9505L201.126 28.1298C201.271 28.0447 201.367 27.8884 201.357 27.7206C201.353 27.6383 201.362 27.5527 201.388 27.4649C201.464 27.202 201.687 26.9944 201.954 26.9402C202.149 26.901 202.332 26.9386 202.483 27.0275C202.637 27.1192 202.824 27.1346 202.979 27.0441L207.541 24.3712C207.701 24.2773 207.799 24.105 207.797 23.9189V23.9057C207.797 23.4213 208.251 23.0441 208.754 23.1783C208.968 23.2352 209.147 23.3937 209.235 23.5975C209.286 23.7184 209.305 23.8372 209.298 23.9493C209.289 24.1166 209.386 24.2718 209.53 24.3563L214.12 27.0457C214.273 27.1357 214.459 27.1197 214.612 27.0286C214.752 26.9452 214.921 26.9066 215.101 26.9331C215.363 26.9717 215.63 27.2037 215.707 27.4571C215.734 27.5483 215.744 27.6372 215.739 27.7222C215.729 27.8896 215.827 28.0453 215.971 28.1298L219.078 29.9505C219.128 29.9793 219.146 30.0422 219.119 30.093C219.119 30.0936 219.118 30.0941 219.117 30.0947C219.089 30.1482 219.022 30.167 218.97 30.1366L215.889 28.3313C215.727 28.2364 215.527 28.2353 215.364 28.3291L215.33 28.3485C215.185 28.4319 215.096 28.5865 215.096 28.7544V34.1515C215.096 34.3293 215.2 34.484 215.355 34.5711C215.358 34.5728 215.361 34.5745 215.364 34.5767C215.518 34.6668 215.704 34.6822 215.859 34.5916L218.945 32.7835C219 32.7515 219.071 32.7747 219.096 32.8338L219.097 32.836C219.119 32.8857 219.099 32.9431 219.053 32.9702L215.996 34.7616C215.836 34.855 215.738 35.0279 215.74 35.214V35.2273V35.2405C215.739 35.4266 215.836 35.5989 215.996 35.6928L215.995 35.6911ZM207.796 31.4521C207.796 31.4477 207.796 31.4432 207.796 31.4388C207.8 31.2605 207.719 31.0915 207.566 31.0015L203.008 28.3308C202.846 28.2358 202.646 28.2347 202.482 28.3286L202.473 28.3336C202.313 28.4258 202.214 28.597 202.214 28.782V34.1504C202.214 34.3177 202.304 34.4729 202.448 34.5557L202.482 34.575C202.645 34.6689 202.846 34.6678 203.008 34.5728L207.566 31.9016C207.719 31.8116 207.8 31.6432 207.796 31.4648C207.796 31.4604 207.796 31.4565 207.796 31.4521ZM208.44 25.009C208.44 24.8235 208.341 24.6523 208.181 24.5606L208.172 24.5556C208.01 24.4618 207.809 24.4629 207.647 24.5578L203.115 27.2136C202.955 27.3075 202.858 27.4798 202.859 27.6659V27.6791V27.6924C202.858 27.8785 202.956 28.0508 203.115 28.1447L207.677 30.8181C207.832 30.9087 208.018 30.8932 208.172 30.8032C208.175 30.8015 208.179 30.7999 208.181 30.7977C208.336 30.7104 208.44 30.5558 208.44 30.378V25.009ZM209.418 30.817L213.98 28.1436C214.14 28.0497 214.238 27.8774 214.236 27.6913V27.678V27.6648C214.238 27.4787 214.14 27.3064 213.98 27.2125L209.448 24.5568C209.286 24.4618 209.086 24.4607 208.922 24.5545L208.889 24.5739C208.744 24.6573 208.655 24.8119 208.655 24.9792V30.3763C208.655 30.5541 208.759 30.7088 208.914 30.796C208.917 30.7977 208.92 30.7993 208.922 30.8015C209.077 30.8916 209.264 30.9076 209.418 30.817ZM214.88 28.7538C214.88 28.5859 214.791 28.4313 214.646 28.3479L214.613 28.3286C214.45 28.2347 214.249 28.2358 214.087 28.3308L209.555 30.9865C209.395 31.0799 209.297 31.2527 209.299 31.4388V31.4521V31.4653C209.297 31.6515 209.395 31.8237 209.555 31.9176L214.117 34.591C214.271 34.6817 214.458 34.6661 214.612 34.5761C214.615 34.5745 214.618 34.5728 214.621 34.5706C214.775 34.4833 214.88 34.3288 214.88 34.1509L214.88 28.7538Z" fill="#5B52FF"/>
</g>
<rect x="185.5" y="15.5" width="47" height="47" rx="23.5" stroke="#5B52FF" stroke-opacity="0.2"/>
<rect x="65" y="75" width="288" height="23" rx="11.5" fill="white"/>
<rect x="65.5" y="75.5" width="287" height="22" rx="11" stroke="#5B52FF" stroke-opacity="0.2"/>
<rect x="95" y="83" width="248" height="7" rx="3.5" fill="#F2F4F9"/>
<circle cx="78.5" cy="86.5" r="7.5" fill="#F2F4F9"/>
<rect x="96" y="110" width="226" height="23" rx="11.5" fill="white"/>
<rect x="96.5" y="110.5" width="225" height="22" rx="11" stroke="#5B52FF" stroke-opacity="0.2"/>
<rect x="126" y="118" width="187" height="7" rx="3.5" fill="#F2F4F9"/>
<circle cx="109.5" cy="121.5" r="7.5" fill="#F2F4F9"/>
<rect x="83" y="145" width="253" height="23" rx="11.5" fill="white"/>
<rect x="83.5" y="145.5" width="252" height="22" rx="11" stroke="#5B52FF" stroke-opacity="0.2"/>
<rect x="114" y="153" width="213" height="7" rx="3.5" fill="#F2F4F9"/>
<circle cx="97.5" cy="156.5" r="7.5" fill="#F2F4F9"/>
</g>
<defs>
<clipPath id="clip0_1_23">
<path d="M0 12C0 5.37258 5.37258 0 12 0H406C412.627 0 418 5.37258 418 12V159H0V12Z" fill="white"/>
</clipPath>
<clipPath id="clip1_1_23">
<rect x="185" y="15" width="48" height="48" rx="24" fill="white"/>
</clipPath>
</defs>
</svg>
