<svg width="496" height="115" viewBox="0 0 496 115" fill="none" xmlns="http://www.w3.org/2000/svg">
<g clip-path="url(#clip0_2_20)">
<mask id="mask0_2_20" style="mask-type:luminance" maskUnits="userSpaceOnUse" x="0" y="0" width="491" height="115">
<path d="M490.787 0H0V114.462H490.787V0Z" fill="white"/>
</mask>
<g mask="url(#mask0_2_20)">
<path d="M187.309 71.8953L175.264 28.6086L166.518 28.6484L154.475 71.8953L142.431 28.6086H133.725L150.341 85.8487H158.609L170.891 43.0381L183.173 85.8487H191.442L208.097 28.6086H199.351L187.309 71.8953Z" fill="#5B52FF"/>
<path d="M298.1 45.844C297.639 45.4354 297.154 45.0485 296.648 44.6875C293.878 42.7131 290.467 41.726 286.412 41.726C282.358 41.726 278.906 42.7131 275.979 44.6875C273.049 46.6616 270.792 49.3517 269.201 52.7555C267.611 56.1621 266.816 60.0242 266.816 64.3437C266.816 68.6632 267.603 72.4996 269.181 75.9315C270.756 79.3635 272.998 82.0738 275.899 84.0602C278.801 86.048 282.252 87.0415 286.254 87.0415C290.257 87.0415 293.806 86.0404 296.59 84.0402C297.482 83.4001 298.303 82.6862 299.055 81.8983V85.8487H306.449V28.6086H298.102L298.1 45.844ZM297.861 72.2149C297.065 74.4941 295.807 76.2825 294.084 77.5812C292.361 78.8789 290.135 79.5294 287.405 79.5294C284.675 79.5294 282.562 78.8532 280.827 77.5011C279.09 76.149 277.792 74.3286 276.932 72.0351C276.071 69.7439 275.64 67.1795 275.64 64.3437C275.64 61.5079 276.071 58.9912 276.932 56.712C277.794 54.4328 279.112 52.6181 280.887 51.266C282.661 49.9144 284.927 49.2381 287.685 49.2381C290.281 49.2381 292.42 49.8744 294.104 51.1468C295.787 52.4187 297.031 54.1934 297.84 56.4731C298.648 58.7523 299.053 61.3763 299.053 64.3437C299.053 67.3111 298.656 69.9357 297.861 72.2149Z" fill="#5B52FF"/>
<path d="M345.252 44.6232C342.098 42.6888 338.377 41.7216 334.083 41.7216C329.79 41.7216 326.187 42.669 323.034 44.5633C319.879 46.458 317.429 49.1079 315.68 52.5141C313.93 55.9203 313.055 59.8626 313.055 64.3394C313.055 68.8163 313.911 72.7209 315.62 76.1247C317.329 79.5309 319.759 82.2007 322.914 84.1332C326.067 86.0676 329.79 87.0348 334.083 87.0348C338.377 87.0348 342.06 86.0733 345.213 84.1532C348.365 82.2331 350.81 79.5685 352.547 76.1628C354.282 72.7586 355.151 68.8163 355.151 64.337C355.151 59.8583 354.29 56.0038 352.567 52.6119C350.844 49.22 348.407 46.5576 345.252 44.6232ZM343.286 75.0521C341.258 77.822 338.191 79.2056 334.083 79.2056C329.976 79.2056 327.048 77.8535 324.98 75.1518C322.914 72.4495 321.879 68.8444 321.879 64.3394C321.879 61.424 322.316 58.8615 323.191 56.6481C324.067 54.4361 325.403 52.6996 327.206 51.441C329.008 50.1829 331.3 49.5524 334.081 49.5524C338.135 49.5524 341.19 50.8988 343.245 53.5872C345.299 56.277 346.325 59.8606 346.325 64.3394C346.325 68.8182 345.314 72.2821 343.286 75.0521Z" fill="#5B52FF"/>
<path d="M406.354 41.845C403.493 41.845 400.91 42.4753 398.605 43.7337C396.4 44.9359 394.641 46.6051 393.321 48.7388C392.203 46.6349 390.642 44.9798 388.628 43.7733C386.48 42.4891 383.881 41.845 380.836 41.845C377.789 41.845 375.31 42.4811 373.005 43.7535C371.223 44.7367 369.727 45.9988 368.515 47.5384V42.9198H361.12V85.8501H369.468V59.0189C369.468 56.103 370.269 53.746 371.873 51.9437C373.476 50.1429 375.59 49.241 378.212 49.241C380.834 49.241 382.977 50.1286 384.553 51.9037C386.129 53.6802 386.915 56.1311 386.915 59.2578L386.877 85.8501H395.183L395.221 59.0165C395.221 56.8451 395.625 55.0361 396.438 53.5925C397.243 52.1488 398.304 51.0619 399.616 50.3317C400.929 49.6044 402.378 49.2391 403.97 49.2391C406.568 49.2391 408.659 50.1066 410.25 51.8436C411.841 53.5805 412.634 55.9976 412.634 59.0985L412.596 85.8501H420.902L420.94 57.1102C420.94 52.4998 419.67 48.8027 417.125 46.0206C414.58 43.2388 410.99 41.845 406.354 41.845Z" fill="#5B52FF"/>
<path d="M445.521 28.6086L426.921 85.8487H435.543L439.733 72.9307H463.224L467.463 85.8487H476.09L457.486 28.6086H445.521ZM442.258 65.1397L451.412 36.9082L460.672 65.1397H442.258Z" fill="#5B52FF"/>
<path d="M490.782 28.6086H482.474V85.8487H490.782V28.6086Z" fill="#5B52FF"/>
<path d="M211.411 42.9161V85.8466H219.718V58.1498V42.9161H218.679H211.411Z" fill="#5B52FF"/>
<path d="M220.253 32.6031C220.51 30.0034 218.611 27.6875 216.011 27.4303C213.412 27.1731 211.096 29.072 210.839 31.6717C210.581 34.2714 212.481 36.5874 215.08 36.8445C217.68 37.1017 219.995 35.2028 220.253 32.6031Z" fill="#5B52FF"/>
<path d="M257.053 63.7628C254.933 62.6363 252.072 61.6114 248.466 60.6819C245.1 59.8349 242.556 59.1047 240.835 58.4966C239.112 57.8862 237.953 57.2519 237.357 56.588C236.761 55.926 236.461 55.1167 236.461 54.1633C236.461 52.5203 237.244 51.2279 238.806 50.2888C240.37 49.3474 242.41 48.9305 244.929 49.0364C247.553 49.1423 249.685 49.7923 251.328 50.9846C252.536 51.8622 253.375 52.9748 253.854 54.3226H262.736C262.419 51.7782 261.464 49.5586 259.874 47.6644C258.285 45.7697 256.204 44.3061 253.633 43.2714C251.063 42.2382 248.133 41.7216 244.849 41.7216C241.564 41.7216 238.549 42.2523 236.045 43.3111C233.54 44.3721 231.6 45.8697 230.222 47.804C228.844 49.738 228.154 52.0038 228.154 54.6021C228.154 56.6958 228.611 58.4766 229.526 59.9484C230.439 61.4183 231.976 62.7041 234.136 63.8048C236.296 64.9055 239.218 65.9309 242.9 66.8857C246.265 67.7871 248.769 68.543 250.412 69.1511C252.055 69.7616 253.135 70.4035 253.653 71.0798C254.17 71.7556 254.429 72.6374 254.429 73.7219C254.429 75.5767 253.693 77.0342 252.223 78.0953C250.751 79.156 248.717 79.6844 246.121 79.6844C243.259 79.6844 240.866 79.042 238.946 77.7558C237.419 76.7351 236.334 75.415 235.686 73.8016H226.762C227.504 77.9894 229.518 81.2359 232.804 83.5413C236.091 85.8463 240.342 86.999 245.565 86.999C250.787 86.999 255.256 85.7929 258.345 83.3815C261.432 80.9707 262.975 77.6446 262.975 73.4048C262.975 71.2052 262.519 69.3309 261.603 67.7795C260.69 66.2295 259.172 64.8898 257.053 63.7628Z" fill="#5B52FF"/>
<path d="M102.505 89.3573C99.7733 91.202 96.2536 90.2944 94.5147 87.8736C90.9769 82.946 84.4125 77.045 75.7058 76.6983C73.955 76.6287 72.3063 75.7573 71.2533 74.3709C59.5777 59.0059 44.9529 59.7823 33.8654 74.3709C32.8125 75.7573 31.1634 76.6287 29.4125 76.6983C20.7062 77.045 14.1515 82.9322 10.604 87.8736C8.86509 90.2944 5.34545 91.2039 2.61351 89.3573C0.0231511 87.606 -0.603002 84.4259 0.563557 81.9611C1.09599 80.838 6.00351 70.9032 0.593469 59.8119C-0.188226 58.2104 -0.196202 56.3065 0.569542 54.6969C1.09599 53.5919 6.01352 43.693 0.585495 32.5737C-1.04171 29.2395 0.846725 24.651 5.17199 24.1704C10.2151 23.612 12.9012 28.8227 11.1185 32.5418C9.53713 35.8422 6.26877 44.7442 11.0866 54.6487C11.7985 56.1129 11.8642 57.8298 11.286 59.3392C10.1892 62.2051 6.30464 74.782 10.1413 76.9859C13.8903 79.1392 22.4072 69.9722 24.6306 67.2104C25.6397 65.9537 27.1492 65.1506 28.7625 65.0227C32.4037 64.7352 41.6106 63.0902 47.7028 53.9791C50.014 50.5228 55.1027 50.5228 57.4139 53.9791C63.5061 63.0902 72.7126 64.7352 76.3544 65.0227C77.9674 65.1506 79.4749 65.9537 80.486 67.2104C82.2869 69.4495 91.2363 79.1335 94.9754 76.9859C98.6725 74.8617 95.2406 63.0244 93.8308 59.3392C93.2523 57.8274 93.32 56.1129 94.0301 54.6487C98.848 44.7442 95.5797 35.8422 93.9982 32.5418C92.2154 28.8207 94.9034 23.612 99.9449 24.1704C104.27 24.649 106.158 29.2375 104.531 32.5737C99.1051 43.6911 104.023 53.5899 104.547 54.6969C105.311 56.3041 105.303 58.2104 104.523 59.8119C99.1113 70.9032 104.021 80.838 104.553 81.9611C105.721 84.4259 105.098 87.606 102.505 89.3573ZM90.7775 89.3892C90.9192 89.5747 90.8677 89.8418 90.6659 89.9596L79.483 96.4825C78.9565 96.7896 78.6093 97.3538 78.6418 97.9619C78.6575 98.2571 78.6255 98.5662 78.5316 98.8833C78.2545 99.8324 77.4471 100.582 76.476 100.778C75.7678 100.919 75.1039 100.784 74.5593 100.462C73.9989 100.134 73.3212 100.076 72.7584 100.403L56.2116 110.054C55.6312 110.393 55.2763 111.016 55.2821 111.688V111.735C55.2821 113.383 53.8189 114.691 52.1215 114.428C51.0947 114.268 50.2209 113.491 49.9381 112.489C49.8504 112.18 49.8203 111.879 49.8361 111.592C49.8661 111.05 49.4636 110.384 48.9967 110.111L32.3619 100.407C31.7995 100.078 31.1195 100.136 30.5571 100.467C30.0108 100.788 29.3408 100.926 28.6308 100.778C27.6517 100.576 26.878 99.8624 26.5908 98.9034C26.4951 98.58 26.4612 98.2671 26.4771 97.9662C26.5111 97.3581 26.1641 96.7896 25.6377 96.4825L14.4526 89.9577C14.2532 89.8399 14.1994 89.5747 14.341 89.3892C14.341 89.3873 14.3449 89.3854 14.3449 89.383C14.4626 89.2294 14.678 89.1875 14.8455 89.2852L26.0405 95.8162C26.6008 96.1434 27.2768 96.0876 27.8371 95.7623C27.8472 95.7566 27.8591 95.7504 27.8691 95.7423C28.4294 95.4275 28.8083 94.8691 28.8083 94.2271V81.0316C28.8083 80.8165 28.9818 80.6429 29.1971 80.6429C29.4125 80.6429 29.586 80.8165 29.586 81.0316V94.2271C29.586 94.8691 29.9649 95.4275 30.5253 95.7423C30.5372 95.7485 30.5472 95.7542 30.5571 95.7623C31.1175 96.0876 31.7935 96.1434 32.3538 95.8162L48.9008 86.1624C49.4812 85.8237 49.8342 85.2014 49.8284 84.5294V84.4812V84.4335C49.8342 83.762 49.4793 83.1396 48.9008 82.8005L37.8237 76.3392C37.6204 76.2218 37.5705 75.9505 37.7161 75.7669C37.7161 75.765 37.72 75.763 37.72 75.7611C37.8397 75.6114 38.0511 75.5718 38.2164 75.6677L49.3935 82.1882C49.9539 82.5153 50.6301 82.4595 51.1901 82.1347C51.2001 82.1285 51.2125 82.1223 51.2225 82.1142C51.7829 81.7995 52.1616 81.241 52.1616 80.599V67.4355C52.1616 67.2204 52.3347 67.0468 52.5502 67.0468C52.7658 67.0468 52.9394 67.2204 52.9394 67.4355V80.601C52.9394 81.2429 53.3181 81.8014 53.8785 82.1166C53.8904 82.1223 53.9004 82.1285 53.9104 82.1367C54.4708 82.4614 55.1466 82.5172 55.707 82.1901L66.8842 75.6696C67.0497 75.5737 67.2609 75.6138 67.3806 75.763C67.3806 75.765 67.3845 75.7669 67.3845 75.7688C67.5299 75.9524 67.4784 76.2238 67.2771 76.3411L56.1997 82.8024C55.6192 83.1396 55.2663 83.7639 55.2725 84.4354V84.4836V84.5313C55.2663 85.2033 55.6216 85.8256 56.2016 86.1647L72.7489 95.8186C73.3093 96.1453 73.9851 96.0895 74.5478 95.7623L74.5793 95.7442C75.1597 95.4194 75.5189 94.8052 75.5189 94.1394V81.034C75.5189 80.8184 75.6925 80.6448 75.9075 80.6448C76.1231 80.6448 76.2962 80.8184 76.2962 81.034V94.229C76.2962 94.8333 76.6215 95.3932 77.1461 95.6927L77.3769 95.8243C77.9016 96.1234 78.5459 96.1215 79.0662 95.8186L90.2634 89.2872C90.4289 89.1894 90.6421 89.2314 90.7594 89.3854L90.7637 89.3911L90.7775 89.3892ZM52.1716 88.4702C52.1716 87.7996 51.8124 87.1815 51.232 86.8506L51.2001 86.8329C50.6101 86.4957 49.8823 86.4976 49.2938 86.8405L32.7607 96.4844C32.2043 96.8092 31.9132 97.4196 31.9251 98.064C31.9251 98.0797 31.9251 98.0955 31.9251 98.1117C31.9251 98.1274 31.9251 98.1436 31.9251 98.1594C31.9132 98.8037 32.2043 99.4137 32.7607 99.7389L49.2938 109.382C49.8823 109.726 50.6082 109.73 51.2001 109.39L51.3217 109.321C51.8463 109.02 52.1716 108.461 52.1716 107.857V88.4702ZM73.1953 98.1098V98.0621C73.2015 97.3896 72.8486 96.7672 72.2682 96.4286L55.8286 86.8386C55.2401 86.4957 54.5147 86.4919 53.9224 86.8305L53.8904 86.8486C53.31 87.1815 52.9509 87.7996 52.9509 88.4678V107.851C52.9509 108.493 53.33 109.051 53.8904 109.367C53.9023 109.373 53.9123 109.378 53.9224 109.384C54.4827 109.711 55.1604 109.768 55.7208 109.44L72.2682 99.7866C72.8486 99.4494 73.2034 98.8251 73.1972 98.1536L73.1953 98.1098ZM79.5727 45.2825L90.6821 51.7633C90.8515 51.8611 90.9192 52.0705 90.8414 52.2503L90.8376 52.2584C90.7461 52.4697 90.4904 52.5531 90.2911 52.4377L79.0781 45.8968C78.5177 45.5698 77.8419 45.6255 77.2797 45.9525C77.2696 45.9586 77.2572 45.9643 77.2472 45.9704C76.6873 46.2856 76.3086 46.8438 76.3086 47.4859V60.6312C76.3086 60.8468 76.135 61.0204 75.9195 61.0204C75.7039 61.0204 75.5303 60.8468 75.5303 60.6312V47.5897C75.5303 46.9197 75.1717 46.3016 74.5917 45.9704L74.4501 45.8907C73.9255 45.5916 73.2811 45.5935 72.7608 45.8987L61.5317 52.4491C61.3624 52.5493 61.1449 52.503 61.0275 52.3461L61.0233 52.3399C60.8878 52.1544 60.9417 51.893 61.1387 51.7776L72.3597 45.2325C72.9163 44.9075 73.2072 44.2993 73.1953 43.6552C73.1953 43.6392 73.1953 43.6232 73.1953 43.6076C73.1953 43.5915 73.1953 43.5755 73.1953 43.5595C73.2072 42.9154 72.9163 42.3054 72.3597 41.9803L55.8267 32.3364C55.2382 31.9934 54.5128 31.9894 53.92 32.3284L53.8904 32.3444C53.3081 32.6754 52.947 33.2956 52.947 33.9657V47.1112C52.947 47.3264 52.7734 47.5 52.5583 47.5C52.3428 47.5 52.1692 47.3264 52.1692 47.1112V33.8958C52.1692 33.2517 51.8267 32.6396 51.2482 32.3544C51.2301 32.3464 51.2144 32.3364 51.1982 32.3265C50.6383 31.9994 49.962 31.9436 49.4016 32.2706L32.8544 41.9242C32.2741 42.2634 31.9211 42.8853 31.9271 43.5576V43.6053V43.6533C31.9211 44.3252 32.2761 44.9475 32.8544 45.2863L43.9815 51.7776C44.1791 51.893 44.2329 52.1544 44.0971 52.3399L44.0933 52.3461C43.9776 52.503 43.7602 52.5493 43.5908 52.4491L32.4695 45.9624C31.8813 45.6194 31.1554 45.6156 30.5631 45.9544L30.4395 46.0242C29.915 46.3253 29.59 46.8838 29.59 47.4878V60.6331C29.59 60.8487 29.4165 61.0223 29.2011 61.0223C28.9858 61.0223 28.8123 60.8487 28.8123 60.6331V47.5218C28.8123 46.8777 28.4693 46.2657 27.891 45.9803C27.8731 45.9723 27.8571 45.9624 27.8411 45.9525C27.2808 45.6255 26.6048 45.5698 26.0445 45.8968L14.8315 52.4377C14.6321 52.5531 14.3768 52.4697 14.2851 52.2584L14.2811 52.2503C14.2033 52.0705 14.2712 51.8611 14.4407 51.7633L25.5499 45.2825C26.1302 44.9433 26.4832 44.3214 26.4771 43.6491V43.6015V43.5534C26.4832 42.8815 26.1302 42.2592 25.5499 41.9204L14.4606 35.4513C14.2931 35.3536 14.2233 35.1442 14.3011 34.9667L14.3051 34.9587C14.3968 34.7474 14.652 34.6616 14.8534 34.7792L26.0464 41.308C26.6068 41.635 27.2828 41.5793 27.8431 41.2542C27.8551 41.2481 27.8651 41.2424 27.8751 41.2344C28.4354 40.9192 28.8143 40.361 28.8143 39.7189V20.3336C28.8143 19.6655 28.4554 19.0474 27.8751 18.7164L27.7335 18.6366C27.209 18.3375 26.5649 18.3395 26.0445 18.6445L14.7617 25.2253C14.5723 25.335 14.331 25.2671 14.2273 25.0737L14.2233 25.0677C14.1256 24.8843 14.1894 24.6589 14.3689 24.5532L25.6416 17.9785C26.1661 17.6714 26.5151 17.1071 26.4811 16.5009C26.4652 16.2037 26.4971 15.8946 26.5908 15.5775C26.868 14.6283 27.6757 13.8786 28.6448 13.6831C29.3527 13.5415 30.0167 13.6771 30.5631 13.9982C31.1235 14.3292 31.8015 14.385 32.3639 14.058L48.9108 4.40631C49.4913 4.06731 49.8442 3.44514 49.8385 2.77311V2.72526C49.8385 0.976381 51.4838 -0.385621 53.31 0.0989558C54.084 0.304353 54.736 0.876675 55.0531 1.61252C55.2401 2.04923 55.3083 2.47798 55.284 2.8828C55.2482 3.48702 55.6035 4.04736 56.1257 4.35248L72.7727 14.064C73.3288 14.3891 74.0032 14.3313 74.5574 14.0022C75.0639 13.7011 75.6762 13.5615 76.332 13.6572C77.2797 13.7968 78.2488 14.6343 78.5278 15.5496C78.6274 15.8787 78.6632 16.1997 78.6456 16.5068C78.6093 17.1111 78.9641 17.6734 79.4869 17.9785L90.7575 24.5532C90.9368 24.657 91.0012 24.8843 90.9034 25.0677C90.9034 25.0697 90.9011 25.0718 90.8991 25.0737C90.7957 25.2671 90.5543 25.335 90.3645 25.2253L79.1897 18.7064C78.6017 18.3634 77.8758 18.3594 77.2835 18.6984L77.1619 18.7682C76.6353 19.0693 76.3125 19.6277 76.3125 20.2339V39.7227C76.3125 40.3649 76.6911 40.9234 77.2515 41.2382C77.2634 41.2443 77.2735 41.2504 77.2835 41.2584C77.8438 41.5835 78.5197 41.6392 79.0805 41.3122L90.2729 34.7832C90.4728 34.6676 90.7298 34.7514 90.8214 34.9647L90.8257 34.9727C90.9034 35.1522 90.8338 35.3596 90.6659 35.4573L79.5765 41.9261C78.9966 42.2634 78.6417 42.8876 78.6494 43.5595V43.6076V43.6552C78.6437 44.3271 78.9985 44.9494 79.5765 45.2886L79.5727 45.2825ZM49.8361 29.9753C49.8361 29.9594 49.8361 29.9434 49.8361 29.9275C49.8485 29.2834 49.5571 28.6731 49.001 28.3481L32.4675 18.7044C31.8793 18.3614 31.1534 18.3574 30.5611 18.6964L30.5272 18.7144C29.947 19.0474 29.588 19.6655 29.588 20.3336V39.7189C29.588 40.3229 29.9131 40.8834 30.4375 41.1825L30.5611 41.2523C31.1514 41.5911 31.8793 41.5873 32.4675 41.2443L49.001 31.5986C49.5571 31.2735 49.8485 30.6653 49.8361 30.0212C49.8361 30.0052 49.8361 29.9913 49.8361 29.9753ZM52.1716 6.70959C52.1716 6.03952 51.8124 5.42138 51.232 5.09034L51.2001 5.07236C50.6101 4.73337 49.8823 4.73737 49.2957 5.08033L32.8564 14.6702C32.2761 15.0092 31.9231 15.6314 31.9291 16.3034V16.3513V16.3992C31.9231 17.0712 32.2781 17.6934 32.8564 18.0324L49.4035 27.6861C49.9639 28.0131 50.6402 27.9573 51.2001 27.6323C51.2106 27.6262 51.2225 27.6202 51.232 27.6123C51.7929 27.2972 52.1716 26.7388 52.1716 26.0968V6.70959ZM55.7189 27.682L72.2662 18.0284C72.8462 17.6894 73.1991 17.0672 73.1934 16.3952V16.3473V16.2994C73.1991 15.6274 72.8443 15.0052 72.2662 14.6662L55.8267 5.07637C55.2382 4.73337 54.5128 4.72936 53.92 5.0684L53.7988 5.13818C53.2742 5.43931 52.9489 5.99769 52.9489 6.60186V26.0907C52.9489 26.7329 53.3281 27.2912 53.8885 27.6063C53.9004 27.6123 53.9104 27.6183 53.92 27.6262C54.4808 27.9513 55.159 28.0091 55.7189 27.682ZM75.5303 20.2319C75.5303 19.6257 75.2055 19.0673 74.6814 18.7662L74.5593 18.6964C73.9693 18.3574 73.2411 18.3614 72.653 18.7044L56.2135 28.2943C55.6331 28.6313 55.2802 29.2555 55.2864 29.9275V29.9753V30.0232C55.2802 30.6952 55.635 31.3174 56.2135 31.6564L72.7608 41.3099C73.3212 41.6373 73.997 41.5812 74.5574 41.2561C74.5674 41.2504 74.5793 41.2443 74.5893 41.2363C75.1497 40.9211 75.5284 40.363 75.5284 39.7208L75.5303 20.2319Z" fill="#5B52FF"/>
</g>
</g>
<defs>
<clipPath id="clip0_2_20">
<rect width="496" height="114.462" fill="white"/>
</clipPath>
</defs>
</svg>
